<?xml version="1.0" encoding="utf-8"?>
<!-- Generator: Adobe Illustrator 26.0.2, SVG Export Plug-In . SVG Version: 6.00 Build 0)  -->
<svg version="1.1" id="Layer_1" xmlns="http://www.w3.org/2000/svg" xmlns:xlink="http://www.w3.org/1999/xlink" x="0px" y="0px"
	 viewBox="0 0 97.2 29.5" style="enable-background:new 0 0 97.2 29.5;" xml:space="preserve">
<style type="text/css">
	.st0{fill:#FFC300;}
	.st1{fill:none;stroke:#FFC300;stroke-miterlimit:10;}
</style>
<g>
	<path class="st0" d="M14.7,1c7.6,0,13.7,6.2,13.7,13.7c0,7.6-6.2,13.7-13.7,13.7S1,22.3,1,14.7C1,7.2,7.2,1,14.7,1 M14.7,0
		C6.6,0,0,6.6,0,14.7s6.6,14.7,14.7,14.7s14.7-6.6,14.7-14.7S22.9,0,14.7,0L14.7,0z"/>
</g>
<path class="st0" d="M17.8,11.6l0.3-0.3c0.5-0.5,1-0.7,1.4-0.7c0.1,0,0.2,0,0.2-0.2c0-0.1-0.1-0.1-0.1-0.1c-0.1,0-0.3,0-0.4,0h-0.5
	c-0.3,0-0.7,0-1,0c-0.1,0-0.2,0-0.2,0.2c0,0.1,0.1,0.1,0.2,0.1c0.4,0,0.4,0.2,0.4,0.3c0,0.1-0.1,0.3-0.3,0.6l-2.8,3.3l-1.3-3.6
	c-0.1-0.2-0.1-0.2-0.1-0.2c0-0.2,0.5-0.3,0.6-0.3c0.1,0,0.3,0,0.3-0.2c0-0.1-0.1-0.1-0.2-0.1c-0.2,0-0.4,0-0.6,0h-1.3
	c-0.2,0-0.4,0-0.6,0c-0.1,0-0.2,0-0.2,0.2c0,0.1,0.1,0.1,0.3,0.1c0.6,0,0.7,0.1,0.8,0.4l1.5,4c0,0,0,0.2,0,0.2s-0.6,2.4-0.6,2.5
	c-0.1,0.3-0.2,0.4-1,0.4c-0.2,0-0.3,0-0.3,0.2c0,0.1,0.1,0.1,0.2,0.1c0.2,0,0.5,0,0.7,0h1.4c0.2,0,0.5,0,0.7,0c0.1,0,0.2,0,0.2-0.2
	c0-0.1-0.1-0.1-0.3-0.1c-0.7,0-0.7-0.1-0.7-0.2c0-0.1,0.1-0.5,0.2-0.7l0.4-1.7c0.1-0.2,0.1-0.3,0.2-0.4L17.8,11.6"/>
<path class="st0" d="M83.1,13.7L82,11.1c0.2-0.3,0.5-0.3,0.7-0.3c0.1,0,0.2,0,0.2-0.2c0-0.1-0.1-0.1-0.2-0.1c-0.2,0-0.4,0-0.6,0
	h-0.7c-0.7,0-1.3,0-1.3,0c-0.1,0-0.2,0-0.2,0.2c0,0.1,0.1,0.1,0.3,0.1c0.7,0,0.7,0.1,0.9,0.4l1.4,3.3l-2.6,2.8
	c-0.4,0.5-0.9,0.9-1.8,1c-0.1,0-0.2,0-0.2,0.2c0,0,0,0.1,0.1,0.1c0.2,0,0.3,0,0.5,0h0.6c0.4,0,0.8,0,1.2,0c0.1,0,0.2,0,0.2-0.2
	c0-0.1-0.1-0.1-0.2-0.1c-0.2,0-0.4-0.2-0.4-0.3c0-0.2,0.1-0.3,0.5-0.7l1.1-1.2c0.3-0.3,0.9-1,1.2-1.2l1.3,2.9c0,0,0.1,0.1,0.1,0.2
	c0,0.1-0.3,0.3-0.6,0.3c-0.1,0-0.2,0-0.2,0.2c0,0.1,0.1,0.1,0.2,0.1c0.2,0,0.4,0,0.6,0h1.3c0.2,0,0.4,0,0.6,0c0.1,0,0.2,0,0.2-0.2
	c0-0.1-0.1-0.1-0.2-0.1c-0.7,0-0.7-0.1-0.9-0.5L83.2,14l1.5-1.6c0.1-0.1,0.4-0.4,0.5-0.5c0.5-0.5,1-1,2-1.1c0.1,0,0.2,0,0.2-0.2
	c0-0.1-0.1-0.1-0.2-0.1c-0.2,0-0.3,0-0.5,0h-0.5c-0.4,0-0.8,0-1.2,0c-0.1,0-0.2,0-0.2,0.2c0,0.1,0.1,0.1,0.2,0.1
	c0.2,0,0.4,0.1,0.4,0.3l0,0c0,0.1,0,0.2-0.2,0.3L83.1,13.7"/>
<g>
	<path class="st0" d="M82.5,1c7.6,0,13.7,6.2,13.7,13.7c0,7.6-6.2,13.7-13.7,13.7s-13.7-6.2-13.7-13.7C68.8,7.2,74.9,1,82.5,1
		 M82.5,0c-8.1,0-14.7,6.6-14.7,14.7s6.6,14.7,14.7,14.7c8.1,0,14.7-6.6,14.7-14.7S90.6,0,82.5,0L82.5,0z"/>
</g>
<g>
	<g>
		<line class="st1" x1="32.6" y1="14.7" x2="60.3" y2="14.7"/>
		<g>
			<path class="st0" d="M64.8,14.7c-2.1,0.8-4.8,2.1-6.4,3.6l1.3-3.6l-1.3-3.6C60.1,12.6,62.7,14,64.8,14.7z"/>
		</g>
	</g>
</g>
</svg>
