<svg id="Layer_1" data-name="Layer 1" xmlns="http://www.w3.org/2000/svg" viewBox="0 0 623.37 79.51"><defs><style>.cls-1{fill:none;stroke:#ffc300;stroke-miterlimit:10;stroke-width:4px;}</style></defs><path class="cls-1" d="M28.54,38.45A64.78,64.78,0,0,0,50,68.65a271.53,271.53,0,0,0,33.68-40,155,155,0,0,0,30.86,51.09,472.78,472.78,0,0,0,41.09-49.58,92.54,92.54,0,0,0,38.42,38.5,187.11,187.11,0,0,1,22.23-38.16,59.48,59.48,0,0,0,30.32,39.7,213.25,213.25,0,0,1,33.6-47.9A116.07,116.07,0,0,0,301,60.63c1.94,2.37,4.59,4.89,7.59,4.31,2.16-.42,3.67-2.31,5-4.07Q326.91,42.95,340.2,25l23.74,36.71a123.4,123.4,0,0,1,40.13-37.59A108.79,108.79,0,0,0,419.93,67.1a180.14,180.14,0,0,1,30.79-32.6A53.15,53.15,0,0,0,464.8,56.16,444.13,444.13,0,0,1,510.31,7.75a166.27,166.27,0,0,0,13.34,66.54l39.76-47.14,13.44,42.16a239.45,239.45,0,0,1,58.92-54L648.12,50" transform="translate(-26.64 -3.17)"/></svg>