<svg id="Layer_1" data-name="Layer 1" xmlns="http://www.w3.org/2000/svg" viewBox="0 0 3103.73 1290.34"><defs><style>.cls-1{fill:none;stroke:#ffc300;stroke-miterlimit:10;stroke-width:6px;}</style></defs><path class="cls-1" d="M99.45,79.94l-79.28.85a83.54,83.54,0,0,1-.75,23.63A305.39,305.39,0,0,1,70.83,104l-.74,158.33C70,275,69.32,289.2,60,297.76c-7.09,6.51-17.47,7.95-27.08,7.62s-19.28-2.1-28.81-.75a97.7,97.7,0,0,0-.64,24.58l33.21-.94c13.51-.38,27.73-1,39.23-8.06,11.14-6.88,18.12-19.1,21.42-31.76s3.33-25.92,3.33-39l0-44.29C100.73,163.05,100.75,120.94,99.45,79.94Z"/><path class="cls-1" d="M99.75,10.74q-13.69-1-27.44-1a1.51,1.51,0,0,0-1.06.27,1.56,1.56,0,0,0-.33,1l-1.36,20.4c-.39,5.81-.78,11.69.31,17.41a169.67,169.67,0,0,1,30.9-.51C100.22,35.48,100,22.64,99.75,10.74Z"/><path class="cls-1" d="M346.07,143.54c-3.17-13.4-6.48-27.14-14.24-38.52C322,90.55,305.58,81.31,288.44,77.69A82.42,82.42,0,0,0,242.16,81a72.49,72.49,0,0,0-35.75,29.28c-11.07,18-13.12,40.08-12.88,61.21.29,25.61,4.43,53.18,22.24,71.59,10,10.36,23.69,16.84,37.88,19.42s28.88,1.41,42.89-2a60.24,60.24,0,0,0,16-5.92,52.36,52.36,0,0,0,11.64-9.51,82.44,82.44,0,0,0,20.45-38.06c2.07-9,2.61-18.25,3-27.47C348.12,167.47,348.8,155.09,346.07,143.54Z"/><path class="cls-1" d="M315.51,186.63a146.12,146.12,0,0,0-.31-39c-1.32-9.28-3.6-18.57-8.23-26.73s-11.86-15.12-20.78-18a46,46,0,0,0-11-1.9c-10.34-.74-21.62.56-29.29,7.53-2.63,2.39-4.7,5.32-7.28,7.75a49,49,0,0,0-5.23,5,22.35,22.35,0,0,0-3.31,6.86c-8,23.9-6.69,50.18-.3,74.56,3.19,12.15,8.21,24.78,18.64,31.77,9.45,6.33,21.82,6.82,32.9,4.27A38.89,38.89,0,0,0,291.69,235c8.26-4.59,13.62-13.08,17.35-21.77C312.71,204.66,314.4,195.36,315.51,186.63Z"/><path class="cls-1" d="M430.4,11,405.79,9.84c-1.57-.08-3.44,0-4.31,1.31a4.66,4.66,0,0,0-.5,2.59l1,248.06q15.33-.14,30.64-1.31c-2.81-30.17-2.53-60.54-2.25-90.84.1-10.79.21-21.65,2.41-32.2,3-14.53,11.17-29.2,25-34.65,6-2.36,12.54-2.81,19-2.66,4.42.11,8.92.5,13,2.18,12.48,5.1,17.43,20,19.35,33.38,5.94,41.51-3.24,83.91.94,125.64a124.1,124.1,0,0,1,29.4-.12c-2.56-38.13.67-76.45-1.14-114.62-1-21-4.41-43.84-19.7-58.3C506.14,76.49,487.18,72.65,470.55,77s-30.74,16.32-39.45,31.14C430.93,75.88,430.76,43.61,430.4,11Z"/><path class="cls-1" d="M735.93,259.21c-1.89-9.74-1.68-19.76-1.46-29.68q.74-34,1.49-68c.36-16.45.68-33.22-4.1-49S716.26,82,700.67,76.73c-10.18-3.45-21.35-2.54-31.83-.15a63.77,63.77,0,0,0-16.56,5.9c-11,6-19,16.6-24.81,27.76l1.69-30.18q-15.39,1.06-30.84,1L599.65,165c.12,8,.25,16,.06,24-.21,9-.8,17.91-1.07,26.87a365.46,365.46,0,0,0,1.53,46.2,86.21,86.21,0,0,1,28.89,0l.73-100.44c.11-14.85.48-30.61,8.52-43.1,7.21-11.19,20.5-18.29,33.8-17.67s26,9.09,31.37,21.28c4,9.18,3.94,19.57,3.83,29.6q-.59,54.6,1.17,109.19A180.71,180.71,0,0,1,735.93,259.21Z"/><path class="cls-1" d="M30,88.92l10,5.72a22.16,22.16,0,0,1,9-7.12l12,7.77a79.7,79.7,0,0,1,26.36-6.48,22.06,22.06,0,0,1-3,4.74,23.86,23.86,0,0,0-3.94,11.55,166.93,166.93,0,0,1,11,14.09l-12.86,8.42a102.49,102.49,0,0,1,12.61,24.62,50.65,50.65,0,0,0-14,10.41,166.82,166.82,0,0,1,13.06,19.7,2.45,2.45,0,0,1,.47,1.69,2.51,2.51,0,0,1-1.27,1.36l-10.87,6.84a59.94,59.94,0,0,1,12.41,19.91,93.64,93.64,0,0,0-13.81,10.29A47.18,47.18,0,0,1,90,238.26a2.82,2.82,0,0,1,.38,2.32,2.89,2.89,0,0,1-1.63,1.28l-12.18,5.45a126.66,126.66,0,0,1,13.84,20.63,1.69,1.69,0,0,1-.88,2.9l-12.7,5.05a74.57,74.57,0,0,1,8.9,19.92l-15.23,2.33,3.8,14.29-16.55-3.37-4,11.91A77,77,0,0,0,42,311.6l-8.59,10.12c-2.72-1.14-4.06-4.18-6.26-6.15-4.54-4.08-13-2.09-15.18,3.6"/><path class="cls-1" d="M90.58,17.65a48.86,48.86,0,0,0-12,7.57L90.94,35.38"/><path class="cls-1" d="M271.77,83.84a47.15,47.15,0,0,0-6.42,10.86,94,94,0,0,0-13.44-8.82l-7.63,15.23q-7.54-2-15.25-3.41l-.75,20.73-18.46,1.82a198.88,198.88,0,0,0,5.38,37.3l-13.68,4.84a156.67,156.67,0,0,1,15.92,18.4,2.59,2.59,0,0,1,.71,1.77c-.1.74-.78,1.24-1.39,1.65l-14.21,9.38,19.26,15.16c1,.8,2.15,1.88,1.91,3.15a3.49,3.49,0,0,1-.9,1.55l-11.18,13.4c5.84,5.45,11.69,10.89,17.47,16.35a3.13,3.13,0,0,1,1.6-2.38,9.24,9.24,0,0,1,2.8-1c3.66-.85,7.31-1.7,10.68-2.34a123.6,123.6,0,0,0,12,18,52.42,52.42,0,0,1,19.26-7.17,37.36,37.36,0,0,0,10,9,104,104,0,0,1,12.19-17l13.57,7.28A95.72,95.72,0,0,1,312.26,224l19.62-2.67a108.77,108.77,0,0,1-10.51-19.94l18-5.09q-8.29-8.69-15.76-18.13a146.67,146.67,0,0,0,17.92-13,38.6,38.6,0,0,1-18-14.81,80.75,80.75,0,0,0,14.68-13.69c-3.46.36-6.64-1.74-9.48-3.75L314.36,122.8a38.29,38.29,0,0,0,11.44-12.22q-12.42-3.57-24.55-8.15a24.08,24.08,0,0,0,4-12.25c-5.16,2.58-11.07,3.07-16.82,3.52a23.42,23.42,0,0,1-7.84-.26C275.46,92.08,271.91,87.48,271.77,83.84Z"/><path class="cls-1" d="M421.64,22.38a99.05,99.05,0,0,1-13.31,8l11,12.22a3.57,3.57,0,0,1,1.22,2.36,3.6,3.6,0,0,1-1.72,2.44l-11.14,8.8A41.73,41.73,0,0,1,422,72.67a26.87,26.87,0,0,0-13.74,11.17l14,10.62a43.44,43.44,0,0,0-14,11.42,49.81,49.81,0,0,1,13.32,10.48A40.23,40.23,0,0,0,409,129.9l13.78,11.93a46.83,46.83,0,0,0-13.73,10.69,3.16,3.16,0,0,0-1,2,3.27,3.27,0,0,0,1,1.94l12.29,14.25a37.25,37.25,0,0,0-12.17,9.44L421,193.94a2.9,2.9,0,0,1,1,2,3,3,0,0,1-1.29,1.8l-11.4,9.38a88.74,88.74,0,0,1,12,16.65A35.08,35.08,0,0,0,409,233.86a82.58,82.58,0,0,0,8.87,12.62"/><path class="cls-1" d="M529.44,246.86l-12.77-8.38a38.9,38.9,0,0,1,13-13.76l-11.2-12.95a2.57,2.57,0,0,1-.13-4.14L530.49,193l-10.35-10.56a3.91,3.91,0,0,1-1.31-2.08,3.86,3.86,0,0,1,.54-2.12,66.45,66.45,0,0,1,11.91-17.05l-12.16-11.94a3.2,3.2,0,0,1-.85-4.32c2.05-5.67,4.47-11.8,9.7-14.79a79,79,0,0,1-16.68-12.39,47.63,47.63,0,0,1,9.35-15l-23.87-7.81-1.33-12.41a33,33,0,0,1-11.18,9.08,5.26,5.26,0,0,1-2.71.73,5.65,5.65,0,0,1-2.83-1.42l-10.6-8.12a8.74,8.74,0,0,1-10.38,11.66"/><path class="cls-1" d="M617,91.7a43.47,43.47,0,0,1-11.28,9.56l13,9.7a98,98,0,0,0-15.47,13.94,111.13,111.13,0,0,1,17.3,12.56A37.44,37.44,0,0,0,604.7,149.1a81.83,81.83,0,0,1,17.22,13.55,30.93,30.93,0,0,0-15.62,15.89A52.33,52.33,0,0,1,622,188.16a26.83,26.83,0,0,0-15.42,12.78,99,99,0,0,1,14.17,15A22.74,22.74,0,0,0,607.3,229l10.82,13.26-11.21,11.91"/><path class="cls-1" d="M726.88,247.67a46.17,46.17,0,0,0-12-10.23l13.74-7.77-15.46-9.4a165.54,165.54,0,0,0,14.93-14.92l-14.9-10.28q7.83-7.71,14.91-16.13a50.78,50.78,0,0,1-13.49-12l11-15.25a65.46,65.46,0,0,1-12.38-10.38l13.28-20.81-22.19-12.83,6.43-17.31L687.23,95.5Q679.87,88.32,672,81.66c-.78-.65-1.81-1.33-2.71-.88a2.59,2.59,0,0,0-.81.77l-7.1,9a25.49,25.49,0,0,1-4.25,4.55c-3.89,3-9.09,3.45-14,3.79"/><path class="cls-1" d="M1144.78,218.45c.17-20.18.33-40.36.37-60.54,0-18.45-.07-37.18-5.1-54.94a46,46,0,0,0-5.79-13.41c-7.22-10.63-21.39-15.5-34-12.94s-23.28,11.82-29,23.32a34.53,34.53,0,0,0-64.42-1.89l.09-18.4a99.91,99.91,0,0,1-26.08.79c-.61,26.1-1.22,52.22,0,78.3.4,8.63,1,17.26.87,25.9-.12,8-.87,15.91-1.31,23.86a315.31,315.31,0,0,0,1.46,52.23l27.47-.25c-2.15-11.37-2-23-1.9-34.62l.42-38.39c.24-22.13.49-44.31,2.94-66.31.53-4.74,1.23-9.65,3.84-13.63,5.66-8.64,19.74-9.29,26.93-1.87,6.66,6.88,7.1,17.48,7.14,27.06l.55,126.7a112.58,112.58,0,0,1,26.64-.86l.34-79.69c.09-19,.17-38.14,2.45-57,.49-4.09,1.11-8.26,3-11.91a18.5,18.5,0,0,1,30.84-3.07c5.22,6.49,5.47,15.54,5.48,23.88q.07,64.53.17,129.06a126.21,126.21,0,0,1,27.38-1.86C1145.26,244.7,1144.68,231.48,1144.78,218.45Z"/><path class="cls-1" d="M1136.31,245.54l-8.75-7.57,8.72-9.66a99,99,0,0,1-9.28-12.46,126.48,126.48,0,0,0,9.87-11A80.52,80.52,0,0,1,1125.44,191l12.08-14.36a76.37,76.37,0,0,1-10-14.92q4.88-5.35,9.22-11.17l-11.79-15.62,11.25-14.25a2,2,0,0,0,.61-1.53,2,2,0,0,0-.89-1.1L1123,108.34A34,34,0,0,0,1128.12,93L1109,91a19.65,19.65,0,0,0-8.42-7.68,30.49,30.49,0,0,1-9.41,12.2,9.92,9.92,0,0,0-7.33.67"/><path class="cls-1" d="M1067.05,248.2l-9.48-8.43a48.07,48.07,0,0,0,11.51-11,65.75,65.75,0,0,1-12.38-14.19l12.17-12.78a36.36,36.36,0,0,1-12.8-14.92,56.59,56.59,0,0,0,13.69-12.27Q1062,168.16,1055,161l14.79-19.07-12-4.16c-.89-.31-2-.88-1.91-1.82a2.25,2.25,0,0,1,.57-1.14L1071.71,115l-17.21-9.55a1.69,1.69,0,0,1-.86-.78,1.71,1.71,0,0,1,.12-1.17l4.43-12.58a109.66,109.66,0,0,1-17.2,3.66,52.6,52.6,0,0,0-11.71-8.6c.65,2.61-1,5.35-3.24,6.82s-5,2-7.62,2.41"/><path class="cls-1" d="M997.78,92.39A25.59,25.59,0,0,0,988,98.9a94.9,94.9,0,0,1,13.28,15.37,41.23,41.23,0,0,0-14.59,13.83,53.61,53.61,0,0,1,15.1,8.42,37.82,37.82,0,0,0-13.31,9.77c-.84,1-1.68,2.22-1.25,3.43a3.83,3.83,0,0,0,1.91,1.83l12.33,7.2a26.3,26.3,0,0,0-10.49,4c-1.06.69-2.16,1.61-2.29,2.87-.18,1.71,1.45,3,2.9,3.93l9.16,5.9a22.75,22.75,0,0,0-9,4.2c-1.35,1-2.68,2.42-2.71,4.12-.05,2,1.68,3.57,3.26,4.82l9.15,7.24a28.82,28.82,0,0,0-14,3.66,109.87,109.87,0,0,1,13.86,11.9,28.94,28.94,0,0,0-15.34,10.79,43.27,43.27,0,0,1,13.86,11.47L987.2,242.9A116.5,116.5,0,0,0,998.67,250"/><path class="cls-1" d="M1292.51,218.63,1346,80.13a165,165,0,0,0-33.4-1.21c-2.06,12-6.39,23.54-10.69,35l-40.29,107-51.57-140.7-32.41-1.31,67.18,172.19a18.52,18.52,0,0,1,1.64,6.32c0,2.64-1.06,5.16-2.16,7.56q-6.36,13.92-13.89,27.26c-1.52,2.69-3.14,5.44-5.65,7.24-2.8,2-6.34,2.58-9.76,3a243.76,243.76,0,0,1-25.62,2c-.18,8,0,15.95.64,23.89q15.81-1.24,31.57-3.12c9.38-1.11,19.23-2.59,26.66-8.42,6.29-4.93,10-12.37,13.36-19.64C1273.52,271.19,1282.68,244.09,1292.51,218.63Z"/><path class="cls-1" d="M1199.29,310.77l7.28,9.35a33.57,33.57,0,0,1,9.18-10.31,118.15,118.15,0,0,0,16.92,6.85,119.26,119.26,0,0,1-.38-17.83,170.79,170.79,0,0,0,23.57-5.06q-3.24-11.47-7-22.76a137.63,137.63,0,0,1,20.43-9.19l-7.74-21.13q9-4.53,17.48-9.85a3.59,3.59,0,0,0,1.73-5.42q-3.59-9.58-7.18-19.16a145.17,145.17,0,0,0,20.61-10.3l-8.23-20.28a189.08,189.08,0,0,1,20.42-11.79,122.73,122.73,0,0,1-6.82-24.61,112.91,112.91,0,0,0,19.78-8.9l-8.16-23.64a97.11,97.11,0,0,1,21-9.81l-5.38-12.45"/><path class="cls-1" d="M1203.1,87a36.37,36.37,0,0,0-9.6,8.48,40.89,40.89,0,0,1,17.52,8.86,26.08,26.08,0,0,0-13.24,9.45,57.27,57.27,0,0,1,21.47,11.31,21,21,0,0,0-15.6,8.83,68.27,68.27,0,0,1,24,14.37,27.47,27.47,0,0,0-10.76,11A47,47,0,0,1,1237.08,174a26.79,26.79,0,0,0-12.67,10.1,55.74,55.74,0,0,1,20.76,12.36,19.7,19.7,0,0,0-10.25,11.68,27.21,27.21,0,0,1,17.81,9.61,36.94,36.94,0,0,0-7.8,11,3,3,0,0,0-.38,2,3.1,3.1,0,0,0,1.49,1.52l7.31,4.53"/><path class="cls-1" d="M1535.46,141.41c-1.84-15-7.43-29.8-17.48-41.09-18.41-20.7-49.54-26.61-76.52-20.33-13.63,3.18-26.91,9.32-36.44,19.57-5.35,5.75-9.35,12.6-13.24,19.42-4.46,7.83-8.85,15.81-11.34,24.47-5.42,18.87-1.33,39,3,58.17,2.46,11,5.11,22.28,11.61,31.48,5.91,8.38,14.6,14.4,23.61,19.29a98.5,98.5,0,0,0,24.34,9.68,106,106,0,0,0,24,2.36,185.93,185.93,0,0,0,65-11.8,303.7,303.7,0,0,1-1.27-32.06c-3,3.93-8,5.78-12.67,7.44-17.19,6.06-34.86,12-53.09,11.79s-37.38-7.62-47.06-23.06c-7.46-11.89-8.37-26.65-8.54-40.69q64.38.75,128.76-1.14C1536.74,163.59,1536.78,152.14,1535.46,141.41Z"/><path class="cls-1" d="M1505,138c-1.55-16.25-13.84-30.95-29.57-35.36-9-2.52-18.61-1.87-27.69.28-8.55,2-17,5.53-23.15,11.83a46.21,46.21,0,0,0-7.86,11.56,84,84,0,0,0-8.69,30.65c32.41-5.78,65.75-1.58,98.55-4.4a1.51,1.51,0,0,0,1.46-2.35C1507,146.05,1505.36,142,1505,138Z"/><path class="cls-1" d="M1529.39,165.21a22.22,22.22,0,0,0-9.67-3.27l7.86-15.45-14.29-12.83a3.4,3.4,0,0,1-1.46-2.36,3.71,3.71,0,0,1,1.38-2.27,21.43,21.43,0,0,0,5.14-8.66,5.11,5.11,0,0,0,.08-3.67,5.4,5.4,0,0,0-2.22-2.09,46.19,46.19,0,0,0-18.75-6.59,15.55,15.55,0,0,0,2-14.16,34.79,34.79,0,0,1-7,6.2,3.57,3.57,0,0,1-2.23.82,3.71,3.71,0,0,1-1.92-1.08l-15.92-13.73a11.59,11.59,0,0,1-7.31,9,36.79,36.79,0,0,0-13.47-8.39,12.22,12.22,0,0,1-4.17,10l-20.15-3.59,1.39,7.61L1412,106.83a2.2,2.2,0,0,0-1.24.83c-.35.64,0,1.41.38,2l3.73,6.51a74.3,74.3,0,0,0-16.65,9.79,1.5,1.5,0,0,0-.19,2.69l5.89,6a32.06,32.06,0,0,0-16.27,12.66,64.47,64.47,0,0,0,12.92,11.07,20,20,0,0,0-15.18,8.87,3.14,3.14,0,0,0-.69,2.35c.21.89,1.08,1.44,1.87,1.89L1403,181a32.3,32.3,0,0,0-13.06,7.86c-1.06,1-2.11,2.52-1.54,3.89a4,4,0,0,0,1.86,1.7l15.8,9.22a24.21,24.21,0,0,0-10,17.76,42.44,42.44,0,0,1,15.9,1.28,32.74,32.74,0,0,0-.49,18,48.73,48.73,0,0,1,13.17-6.51,50.32,50.32,0,0,0,7.52,17.55,37.33,37.33,0,0,1,14-6.86,20.67,20.67,0,0,0,9.36,12.49,25.4,25.4,0,0,1,15.32-10.59,59.66,59.66,0,0,0,12.8,9.83,18.25,18.25,0,0,1,8.32-14.06A30.06,30.06,0,0,0,1505.68,253a30.3,30.3,0,0,1,11.63-18.22,67.42,67.42,0,0,0,6.71,9.63"/><path class="cls-1" d="M1416,163.06a22.15,22.15,0,0,0,8.49,6.07,84.69,84.69,0,0,1,17.41-9.43,19.73,19.73,0,0,0,7.18,8,3.18,3.18,0,0,0,1.36.56,3.43,3.43,0,0,0,1.68-.46l14.75-7a24.9,24.9,0,0,0,10.14,8.32,46.53,46.53,0,0,1,15.12-9.32,29.92,29.92,0,0,0,11.51,8.61,14.47,14.47,0,0,1,7.4-7.1"/><path class="cls-1" d="M1741.28,116.78c-15.11-10.69-34.49-15.78-52.64-12.12s-34.56,16.59-40.8,34c-3.34,9.34-3.77,19.44-4,29.36q-1.21,46.56,1.65,93.12-16.15-.53-32.32-.38l.23-13,1-55.39c.65-37.4,1.29-74.82.57-112.22,9.7-1.2,19.47-1.93,29.24-2.2a321.51,321.51,0,0,0,.84,38.27c3.5-18.73,20.32-33.07,38.79-37.76s38.16-1.14,56,5.48a6,6,0,0,1,2.92,1.8,6.1,6.1,0,0,1,.75,3.83C1743.23,99.19,1742.78,108.77,1741.28,116.78Z"/><path class="cls-1" d="M1636.29,249.13l-14.73-7.61q7.74-8.07,16.1-15.52a52.72,52.72,0,0,1-18.59-15.58q10-6.27,19.63-13a55.55,55.55,0,0,1-18-14.08A2,2,0,0,1,1620,182c0-.75.8-1.21,1.48-1.53l17.55-8.3L1620.72,153a49.2,49.2,0,0,0,21.2-12.36,86.5,86.5,0,0,1-20.59-17.89,33.82,33.82,0,0,0,17.46-9.29l-17.18-16.91,10.57-8.26"/><path class="cls-1" d="M1734.79,101.63a48.43,48.43,0,0,0-15.08-13.11,2.33,2.33,0,0,0-1.57-.42,2.37,2.37,0,0,0-1.3,1.23l-4.55,7.4a39.6,39.6,0,0,0-19.13-12.57,113.46,113.46,0,0,1,1.4,11.48,101.83,101.83,0,0,0-26.62.49l4.85,6.16a116.35,116.35,0,0,0-19.62,10.36"/><path class="cls-1" d="M1811.82,260a231,231,0,0,0,31.48,3.31c16.24.59,33-.64,47.71-7.49s27.22-20.17,29.55-36.25a53.25,53.25,0,0,0,0-13.11c-1.68-15.78-8.91-32-22.74-39.76-5.18-2.92-11-4.5-16.71-6.05l-37.08-10.06c-8.92-2.42-18.8-5.57-23.16-13.72-4.53-8.46-1-19.41,5.74-26.23,10.57-10.69,27.17-13.15,42-11s28.82,8.33,43.24,12.57a49.89,49.89,0,0,1,0-23.4,3.51,3.51,0,0,0,0-2.61A3.34,3.34,0,0,0,1910,85a154.1,154.1,0,0,0-75.45-6.41c-9.81,1.63-19.9,4.44-27.21,11.19-5.48,5-8.94,11.88-12.06,18.65-4,8.65-7.7,17.85-7.18,27.37.85,15.43,12.88,28.34,26.66,35.33s29.37,9.33,44.43,12.78c6.31,1.45,12.68,3.15,18.21,6.5s10.22,8.62,11.49,15c2.14,10.68-5.55,20.75-13.61,28.09a26.23,26.23,0,0,1-8.19,5.61,25.4,25.4,0,0,1-8,1.28c-24.77.86-48.81-7.64-72-16.34l1,30.76C1796.4,256.74,1804.83,258.73,1811.82,260Z"/><path class="cls-1" d="M1901.92,90.74l-7.4,7.8a46.37,46.37,0,0,0-19.35-12.38c.46,3.37-3.25,6-6.65,6.08s-6.54-1.68-9.72-2.9a35.19,35.19,0,0,0-14.93-2.22l2.88,7.78a194.92,194.92,0,0,0-30.15,1.92l3.9,6.59a1.67,1.67,0,0,1,.33,1c-.07.48-.53.79-.95,1l-17.22,10.17A51.59,51.59,0,0,0,1813,126a36.24,36.24,0,0,0-16.38,13.72,58.36,58.36,0,0,0,22.17,6.1,18.55,18.55,0,0,0-.71,20.62c5.81-1.73,7.78-9.27,13-12.27a2.59,2.59,0,0,1,1.75-.45c.87.18,1.39,1.05,1.8,1.84l10.75,20.74a22.62,22.62,0,0,1,17.1-13.37,16.81,16.81,0,0,0,1.16,15.42,46.83,46.83,0,0,1,30.83-3.64l-9.08,4.43a4.87,4.87,0,0,0-2.11,1.56c-1.49,2.34,1.54,4.89,4,6.1a126.08,126.08,0,0,1,23,14.33,2,2,0,0,1,.93,1.26c.08.82-.79,1.38-1.57,1.64-2.41.78-5,.55-7.53.93s-5.2,1.66-5.91,4.09c-.52,1.78.17,3.67.84,5.4l8.58,21.88a67.81,67.81,0,0,0-23,.52c-1.54.31-3.22.77-4.06,2.09s-.54,3.07-.2,4.62l2.57,11.68a213.89,213.89,0,0,0-28.88-8.84,3.23,3.23,0,0,0-2.19,0,3.29,3.29,0,0,0-1.31,1.73l-4.63,10.4-23.49-16a2.89,2.89,0,0,0-1.65-.67c-.82,0-1.44.75-2,1.38a31.73,31.73,0,0,1-9,7.46,3.91,3.91,0,0,1-2.52.68,4.11,4.11,0,0,1-2.18-1.63l-10.27-12.1"/><path class="cls-1" d="M2073.41,211.79l-42.17-.43c1.41,14.44,2.7,29.26-1.08,43.27-1.21,4.51-2.94,8.87-4.5,13.28a190.48,190.48,0,0,0-9.47,40,61.63,61.63,0,0,1,26.72-.83c-.85-3.86,1.41-7.64,3.5-11,9.53-15.35,17.24-31.74,24.93-48.09a28.8,28.8,0,0,0,2-5.12,28.39,28.39,0,0,0,.52-7.71C2073.69,227.19,2073.5,219.17,2073.41,211.79Z"/><path class="cls-1" d="M2058.45,223.09l-13.69,8.24a3.38,3.38,0,0,0-1.45,1.32c-.54,1.14.29,2.42,1.08,3.4l12,14.94a48.58,48.58,0,0,0-21.28,13.57c-1.33,1.46-2.65,3.3-2.26,5.23a6.89,6.89,0,0,0,2.58,3.48l8.22,7.16a39.45,39.45,0,0,0-17.33,14.9"/><path class="cls-1" d="M2356.6,226.1a189.39,189.39,0,0,0,11.13-44.92c2.33-19.34,1.6-39.33-4.74-57.76s-18.65-35.19-35.72-44.59-39-10.59-55.94-.94c-8.92,5.08-16,12.73-22.89,20.37a123.06,123.06,0,0,0,1.32-23.17,169.62,169.62,0,0,1-30.65-.13c1.54,15.1,1.65,30.3,1.76,45.48.49,68.19,1,136.37.37,204.56l28.8-2.47q-1-45,.92-90c11.42,17.85,33.52,27.82,54.64,25.95S2349.35,245.06,2356.6,226.1Z"/><path class="cls-1" d="M2334.49,188.22c1.44-13.94,2.88-28,1.66-41.94s-5.29-28-13.85-39.08a27,27,0,0,0-8.81-7.88c-5.33-2.72-11.62-2.59-17.61-2.3-9.82.47-20.23,1.39-28.11,7.26-9.77,7.27-13.18,20.18-15.33,32.17-2.87,16-4.65,32.42-2.35,48.52s9,32,21,43c4.19,3.84,9.14,7.1,14.72,8.14a29.12,29.12,0,0,0,12.81-.89C2319.09,229.64,2332.39,208.58,2334.49,188.22Z"/><path class="cls-1" d="M2237.23,88c-3.24,2-6.72,5-6.39,8.85.48,5.47,8.36,8,8.72,13.51.47,6.93-11.11,9.72-11.13,16.66,0,2.8,2,5.15,3.83,7.24l9,10c-3.78,2.71-7.64,5.51-10.24,9.36s-3.74,9-1.65,13.2c1.15,2.28,3.11,4,4.89,5.83a48.12,48.12,0,0,1,8.47,11.79,81.65,81.65,0,0,0-12.31,11.85c-1.79,2.12-3.57,4.85-2.7,7.48.53,1.61,1.94,2.75,3.28,3.78l13.08,10.14a58.8,58.8,0,0,0-14.79,9.92c-.92.84-1.88,1.9-1.76,3.14a4.28,4.28,0,0,0,1.61,2.49L2242.62,246a28.92,28.92,0,0,0-12.8,10,4.91,4.91,0,0,0-1.19,3.11,5.34,5.34,0,0,0,1.44,2.74l12.12,15c-3.7,5-12.31,6.14-13.42,12.26-.43,2.4.56,4.81,1.75,6.94a34.25,34.25,0,0,0,9.64,10.86"/><path class="cls-1" d="M2255.64,223a126,126,0,0,0,34.75,25.23c-.36-1.85,2.19-2.68,4.05-3a18.3,18.3,0,0,0,11.08-6.64,26.46,26.46,0,0,0,15.34,12.2,70.5,70.5,0,0,1,3.6-22.5,65.28,65.28,0,0,0,23.75-7.55,32.38,32.38,0,0,1-10.4-9.77,3.7,3.7,0,0,1-.8-2,4,4,0,0,1,1.16-2.39l19.56-24.1h-12.25c-2.68-3.57.9-8.33,3.86-11.66a54.08,54.08,0,0,0,12.22-23.74c-5-3-11.83,5.5-16.61,2.09-3.27-2.33-1.59-7.38,0-11.05a62.64,62.64,0,0,0,5.38-23.5c-3.74-.27-4.78,5.94-8.44,6.76-3.49.78-5.63-3.65-6.41-7.15L2329.26,86c1.4,4-3.32,8-7.56,7.66s-7.77-3.19-11.19-5.71a89.58,89.58,0,0,0-16.81-9.78l.91,10.33a47,47,0,0,1-20.21-1.32c.51,3.09-1.51,6.16-4.16,7.83s-5.82,2.25-8.9,2.79"/><path class="cls-1" d="M2556.38,251.18a754.15,754.15,0,0,1-1.38-98.69c.61-11.8,1.49-23.69-.15-35.39s-6.06-23.4-14.58-31.59a48.59,48.59,0,0,0-16.78-10.17,62.83,62.83,0,0,0-77.65,29.94,562.19,562.19,0,0,0,2.75-102,218.77,218.77,0,0,1-31.45,1.09c4,24.6.53,49.71.11,74.63-.19,10.88.19,21.76.58,32.64l5.09,143.49,26.83-.41,1-83.37c.12-10.21.24-20.44,1.31-30.59.76-7.19,2-14.41,4.95-21,4.92-11.11,14.87-20.1,26.68-22.94s25.22.92,33.15,10.12c7.55,8.74,9.56,20.86,10.72,32.35,3.93,39.12,1.37,78.56-1.2,117.79C2536.59,253.75,2547.46,252.43,2556.38,251.18Z"/><path class="cls-1" d="M2438,18.84a28,28,0,0,0-9.8,8.67A42.44,42.44,0,0,1,2441,43.86a31.37,31.37,0,0,0-13.29,11.91A47,47,0,0,1,2440,71a34.33,34.33,0,0,0-14.29,13.48,5,5,0,0,0-.92,3.29,5.44,5.44,0,0,0,1.74,2.67q5.29,5.37,10.58,10.73a18.46,18.46,0,0,0-11.5,13.11,10.39,10.39,0,0,0,0,5.31c2.23,6.94,13.62,7.83,15.07,15a85.59,85.59,0,0,0-15.82,8.32,87.21,87.21,0,0,1,19,20.62,39.76,39.76,0,0,0-17.86,15.28,35.25,35.25,0,0,1,17.24,14.54,36.48,36.48,0,0,0-14.94,12.43l14.29,21a33.42,33.42,0,0,0-11.83,8.58"/><path class="cls-1" d="M2535.19,236a18.26,18.26,0,0,1,10-10.14c-4.48-2.59-9.48-6-9.79-11.19-.47-8.1,10.72-12.52,11.88-20.54a42.89,42.89,0,0,1-12.86-5.32,103.22,103.22,0,0,0,12.38-25.93c-2.38.59-4.88,1.18-7.27.61s-4.61-2.67-4.4-5.12a7.73,7.73,0,0,1,1.14-3q6-10.89,11.93-21.77c-3.22.85-6.55,1.7-9.84,1.21s-6.57-2.69-7.24-6a73.18,73.18,0,0,0-2.56-34,6,6,0,0,0,3.38-5.74,55,55,0,0,1-32.15-12.34l-1.05,9.78c-5.17.86-10.35-2.18-15.55-1.51a11.28,11.28,0,0,0-8.76,6.61"/><path class="cls-1" d="M2704.53,207.05q-20.27.16-40.52,1.14a102.13,102.13,0,0,0-.74,15.84l0,9.76c0,7.21.07,14.42.34,21.63l42.12-3C2703.55,238.25,2702.32,224,2704.53,207.05Z"/><path class="cls-1" d="M2679.12,218.63a68.14,68.14,0,0,0,12.25,10.16c-2.19,3.79-5.83,6.47-9,9.52s-6,7-5.77,11.35a1.2,1.2,0,0,0,1.22-1.3"/><path class="cls-1" d="M2950.26,169.12l.57-163a2.91,2.91,0,0,0-.74-2.38,2.86,2.86,0,0,0-1.76-.38l-27.4,0c-1.21,0-2.66.15-3.19,1.23a3.33,3.33,0,0,0,0,2.16c6.77,31-.43,63.55,3.9,95-6.9-12.56-19.33-21.71-33.11-25.65s-28.76-2.87-42.26,1.93c-8.9,3.16-17.37,8-23.58,15.14-9.76,11.17-12.94,26.53-15,41.22a417.86,417.86,0,0,0-3.91,51.2c-.12,8.43,0,17,2.56,25.05,2.8,8.89,8.38,16.67,14.74,23.49a110.52,110.52,0,0,0,26.5,20.83c6.87,3.87,14.29,7,22.12,7.88,20.38,2.21,39.31-11.6,51.77-27.87a147.89,147.89,0,0,0,.92,20.07,54.87,54.87,0,0,1,28.71-1.11C2952.45,225.3,2950.16,196.59,2950.26,169.12Z"/><path class="cls-1" d="M2919.73,146.94c-3.1-6.82-3.85-14.43-5.53-21.73s-4.64-14.82-10.75-19.15c-3.31-2.36-7.28-3.57-11.21-4.63q-8.37-2.27-16.93-3.81c-5.46-1-11.25-1.72-16.42.3-3.91,1.53-7.08,4.51-9.76,7.73-12.16,14.63-15.71,34.56-16.3,53.58-.74,24,3.64,50.3,21.54,66.3,12,10.7,31,14.93,44.29,6,10.27-6.85,14.94-19.49,17.54-31.56C2920.11,181.84,2926.39,161.58,2919.73,146.94Z"/><path class="cls-1" d="M2943.54,231.11l-17.05-16.54,17.39-23.32a100.68,100.68,0,0,1-13.71-12.05c-1.28-1.34-2.57-2.85-2.82-4.68-.32-2.46,1.29-4.69,2.82-6.64l13.92-17.69a53.64,53.64,0,0,1-19-14,132.42,132.42,0,0,0,15.66-21.47,4.21,4.21,0,0,0,.78-2.18c0-1.24-1.1-2.16-2-3a41.59,41.59,0,0,1-11-15,4.61,4.61,0,0,1-.52-2.72,5.12,5.12,0,0,1,2.15-2.6,45.58,45.58,0,0,0,13.66-17.79c-5.13-.15-9.21-4.2-12.47-8.16-2.18-2.65-4.34-5.56-4.81-9-1.08-7.79,6.57-13.59,12.61-18.63,1.57-1.31,3.23-3.13,2.72-5.11-.41-1.56-2-2.44-3.35-3.28a25.38,25.38,0,0,1-10.53-13.21"/><path class="cls-1" d="M2898.42,88.69a16.43,16.43,0,0,0-7.79,4.41,25.84,25.84,0,0,0-15.35-9.3c.93,1.46-.06,3.52-1.59,4.34a9.64,9.64,0,0,1-5.07.65l-24.46-1.31,5,8.47a50.13,50.13,0,0,0-26.28,15.8,3.35,3.35,0,0,0-1,1.93,3.45,3.45,0,0,0,1.13,2.26l7.4,8.59a41.49,41.49,0,0,0-14.17,11.57,7.81,7.81,0,0,0-1.8,3.48c-.55,3.4,2.81,6,5.67,7.92s6,5.05,4.74,8.26c-.69,1.82-2.54,2.86-4.09,4a17.67,17.67,0,0,0-6.93,13.24,4.28,4.28,0,0,0,.42,2.35c2.11,3.55,8.49-2.05,11.54.75-8.07,2-13.82,10.75-12.42,18.94a7.44,7.44,0,0,0,2.27,4.58c1.89,1.54,4.58,1.4,7,1.77a15,15,0,0,1,9.43,5.52l-7.33,7.29c-2.22,2.2-4.62,5.08-3.71,8.07,1.28,4.24,8.15,3.67,10.67,0,1.23-1.77,3.09-4.34,4.84-3.08a3.37,3.37,0,0,1,1,1.71q3.92,11,7.84,21.94c-1.27-4.18,2.84-9,7.17-8.38s6.89,5.28,8.66,9.37l5.18,11.94c3-1.06,3.84-4.71,4.86-7.68s3.83-6.24,6.72-5c3.6,1.19,4.05,7.92,7.81,7.45,1.77-.22,2.76-2.07,3.69-3.59a20.13,20.13,0,0,1,15.82-9.46"/><path class="cls-1" d="M3099.46,206.47a138.46,138.46,0,0,0-39.42,2.67q-1.41,24.06-.74,48.19a178.58,178.58,0,0,1,41.24-2.22C3099.59,238.57,3099.5,222,3099.46,206.47Z"/><path class="cls-1" d="M3078.81,216.49l10.4,15.34a2.37,2.37,0,0,1,.59,1.72c-.15.72-.91,1.12-1.58,1.42l-12.11,5.32c-1.46.64-3.43,1.16-4.41-.09"/><path class="cls-1" d="M617.09,553.3q0-25.75.53-51.5a251.75,251.75,0,0,1,36.74-.68,47.57,47.57,0,0,1-1.19-12.42q-17.5-.15-35,.3l-.27-27.81-15.47,0a1.42,1.42,0,0,0-.71.12c-.48.27-.48.95-.43,1.49a130.31,130.31,0,0,1-.22,27.43q-12.18-.58-24.37-.2a1.43,1.43,0,0,0-1.77,1.7l.15,11.26a140.08,140.08,0,0,1,25.82-.3l.4,44.27c.07,6.82.14,13.74,2,20.32s5.6,12.9,11.52,16.3c5.12,3,11.26,3.45,17.18,3.67,7.62.29,15.26.24,22.88-.15a67.89,67.89,0,0,1-1-13l-23.45-1.46a18.32,18.32,0,0,1-7.09-1.42c-3-1.54-5-4.71-5.81-8S617.09,556.44,617.09,553.3Z"/><path class="cls-1" d="M768,523c-2.37-10.22-5.38-21.4-14.07-27.29a38.68,38.68,0,0,0-9.57-4.28c-4.28-1.43-8.61-2.72-12.93-4a27.11,27.11,0,0,0-8-1.53,23.82,23.82,0,0,0-8.89,2.32c-11,4.69-21.57,12.21-25.83,23.35a55.78,55.78,0,0,0-2.6,10.84q-1.2,7.22-2.2,14.46c-.81,5.89-1.51,11.94-.1,17.72a42.57,42.57,0,0,0,5,11.17,54.92,54.92,0,0,0,8.3,11.44c8.52,8.55,21.13,12,33.19,11.77s23.81-3.59,35.39-7a44.06,44.06,0,0,1-.21-16.19,86.29,86.29,0,0,1-29,8.59c-11,1.23-23.43-.22-30.92-8.42-6.14-6.71-7.58-16.38-8.27-25.45,8.72,1.27,17.58,1.2,26.39,1.13l45.84-.38C768.9,535.06,769.27,528.68,768,523Z"/><path class="cls-1" d="M751,518.72c-1.63-8.34-8.38-15.34-16.54-17.76a27.27,27.27,0,0,0-24.07,4.85,31.86,31.86,0,0,0-11.69,21.89.74.74,0,0,0,.1.57.77.77,0,0,0,.56.18l26.09.93c9.27.33,18.66.65,27.74-1.27C751.68,525,751.51,521.51,751,518.72Z"/><path class="cls-1" d="M849.16,487.61c-13.3-1.65-28,.71-37.42,10.27-6.67,6.79-9.78,16.22-12.67,25.29a59.84,59.84,0,0,0-2.63,10.34,42.55,42.55,0,0,0-.16,8.14c.84,13.85,5.92,28,16.42,37.07,8,6.94,18.75,10.43,29.37,10.46s21.09-3.26,30.29-8.55a73.42,73.42,0,0,1,.35-15.33c-8.65,5.45-18.41,9.69-28.63,9.84s-20.92-4.46-26.05-13.3a36.92,36.92,0,0,1-4-11.79c-1.87-9.75-2.07-20.09,1.42-29.39s11.12-17.39,20.8-19.63a35.78,35.78,0,0,1,9.91-.65,37.11,37.11,0,0,1,10.56,1.95c5.77,2.09,10.62,6.08,15.34,10a66.65,66.65,0,0,1,.2-18.12A73.19,73.19,0,0,0,849.16,487.61Z"/><path class="cls-1" d="M978.26,567.77V532.21c0-8.47,0-17.11-2.65-25.16s-8.32-15.58-16.39-18.18a31,31,0,0,0-11.43-1.06,44.33,44.33,0,0,0-17,4.08,26.65,26.65,0,0,0-12.43,12,451,451,0,0,0,1.32-53.52,74.65,74.65,0,0,1-16.63.7l.28,138,16.46-1c-.32-4.79-.22-9.6-.11-14.4l1-44.82c.19-8.12.86-17.3,7.13-22.45,2.92-2.4,6.67-3.54,10.36-4.36,4.49-1,9.43-1.56,13.49.61,4.68,2.5,6.91,7.95,8.15,13.12,2.71,11.37,2.32,23.21,2.22,34.9q-.18,18.8.68,37.59a72.65,72.65,0,0,1,16.27-.82C976.92,580.85,978.27,574,978.26,567.77Z"/><path class="cls-1" d="M1195.06,457.06l-16.61.94a111.35,111.35,0,0,0-5.7,12.54c-1.69,4.42-3.09,8.95-4.87,13.34-2,4.85-4.37,9.5-6.75,14.17q-26.87,52.63-49.21,107.42a152,152,0,0,0,15.38-.93,27.37,27.37,0,0,1,2.55-7.11l23-49.34C1167,517.79,1181.18,487.5,1195.06,457.06Z"/><path class="cls-1" d="M1407.45,523.06q.73-35.86.58-71.76a45.14,45.14,0,0,0-16.63,0,279.42,279.42,0,0,0,1.44,53.86,32.28,32.28,0,0,0-57.41-1,52.5,52.5,0,0,0-3.82,9.87,139.12,139.12,0,0,0-5.57,32.14,37.23,37.23,0,0,0,.47,9.95c.93,4.26,3.12,8.12,5.47,11.79,3.12,4.88,6.62,9.62,11.13,13.26a34,34,0,0,0,48.78-6.37,48.75,48.75,0,0,0-.07,12.07,43.87,43.87,0,0,1,15.79,0C1407.38,565.61,1407,544.33,1407.45,523.06Z"/><path class="cls-1" d="M1390.58,538.1c0-5.9,0-11.86-1.24-17.62s-3.91-11.4-8.41-15.22a21.45,21.45,0,0,0-18.22-4.39,23.11,23.11,0,0,0-15,11.38c-2.88,5.25-3.68,11.36-4.2,17.33-.63,7.1-.93,14.31.37,21.32s4.36,13.87,9.6,18.7,12.85,7.37,19.74,5.52c7.19-1.94,12.56-8.3,15-15.32S1390.57,545.14,1390.58,538.1Z"/><path class="cls-1" d="M1516.41,549.69a193.15,193.15,0,0,0-1.67-35.73c-.6-4.26-1.38-8.6-3.52-12.32-2.61-4.52-7-7.75-11.85-9.79s-10-3-15.13-3.81c-5.89-1-11.9-1.78-17.79-.87a61.86,61.86,0,0,0-10.24,2.81l-13,4.39a1.83,1.83,0,0,0-.93.54,1.87,1.87,0,0,0-.22,1.15l.42,13.92c4.62-3.33,10.23-4.9,15.72-6.41,9.83-2.7,20.65-5.33,29.89-1,8.64,4,13.93,14.17,12.65,23.94a151.36,151.36,0,0,0-45.61,3.29c-3.19.73-6.44,1.59-9.14,3.45-5.84,4-7.8,11.62-9.12,18.58-1.27,6.69-2.25,14,.95,20,2.41,4.54,6.85,7.6,11.25,10.25,5.71,3.43,11.87,6.54,18.52,7,6.39.42,12.74-1.7,18.29-4.9s10.4-7.45,15.22-11.67l-.46,14.38a43.53,43.53,0,0,1,16.17-.1A345.88,345.88,0,0,1,1516.41,549.69Z"/><path class="cls-1" d="M1499.75,537.12c-8,1-16.18-.23-24.25.26s-16.72,3.19-21.2,9.94a19,19,0,0,0-2.72,13.45,16.38,16.38,0,0,0,4,8.58c3.07,3.28,7.57,4.81,12,5.55a29.12,29.12,0,0,0,10.24.13c7.9-1.49,14.49-7.48,18-14.69S1500.23,544.83,1499.75,537.12Z"/><path class="cls-1" d="M1584.94,546.07l0-44.83a286.88,286.88,0,0,0,37.31-1.17l-.52-11.83a271.23,271.23,0,0,1-34.68.75c-1,0-2.16-.18-2.68-1a3.22,3.22,0,0,1-.22-2,130.11,130.11,0,0,0,.32-25.5l-15.29,1.17a2.62,2.62,0,0,0-2,.74,2.68,2.68,0,0,0-.14,2.16,78.52,78.52,0,0,1,1.23,25.67q-12.66.4-25.33-.13l-1.09,12.56a187.38,187.38,0,0,1,26.91.31q.26,30,2.56,59.9c.43,5.48,1.06,11.36,4.65,15.53,3.19,3.71,8.13,5.35,12.88,6.55,10.9,2.75,22.43,4.06,33.34,1.39a86.6,86.6,0,0,1-.23-12.16,148.68,148.68,0,0,1-26-2,12.91,12.91,0,0,1-5.29-1.73,11.53,11.53,0,0,1-3.76-5.4C1584.52,559,1584.93,552.42,1584.94,546.07Z"/><path class="cls-1" d="M1731.26,554.71l-.18-26c-.06-8.43-.21-17.23-4.18-24.66-4.1-7.68-11.92-12.9-20.28-15.31s-17.27-2.25-25.9-1.19c-7.65.93-15.28,2.57-22.25,5.85a3.09,3.09,0,0,0-1.38,1,3.18,3.18,0,0,0-.3,1.81l.49,14c3.07-2.21,6.77-3.34,10.38-4.45l11.59-3.52a48.89,48.89,0,0,1,10.64-2.39,24.47,24.47,0,0,1,26.21,25.34,357.33,357.33,0,0,0-37.44,1.75,37.15,37.15,0,0,0-9.88,1.94c-9.21,3.57-14.38,13.46-16.74,23.06-1.3,5.31-2,11-.4,16.2,1.88,6.23,6.79,11.14,12.26,14.66a36.85,36.85,0,0,0,13.22,5.49c7.18,1.32,14.69-.07,21.36-3a67.37,67.37,0,0,0,18-12.38l-.33,13.82a39.63,39.63,0,0,1,16.16-.23C1731.37,575.91,1731.33,565.3,1731.26,554.71Z"/><path class="cls-1" d="M1714.63,538.45c-12.69-1.61-26.3-3.08-37.66,2.8a18.29,18.29,0,0,0-5.75,4.37c-2.55,3.09-3.49,7.21-3.81,11.21s0,8.43,2.5,11.66c2.84,3.71,7.78,5,12.38,5.86,6.39,1.16,13.43,1.77,19-1.59,3.32-2,5.72-5.22,7.64-8.58A43.83,43.83,0,0,0,1714.63,538.45Z"/><path class="cls-1" d="M1948.4,456.92l-12.38-.43a6.23,6.23,0,0,0-4,.77,6.09,6.09,0,0,0-1.67,2.45L1910.54,502l-4.53,9.67c-14.4,30.83-28.63,61.76-41.53,93.24l15.5-1.06q2.1-4.65,4.23-9.31,11-24.27,22.2-48.48C1920.14,516.28,1934,486.55,1948.4,456.92Z"/><path class="cls-1" d="M2169,550.44l-2-36.17a59.64,59.64,0,0,0-1.72-13.26c-1.22-4.29-3.52-8.42-7.14-11a18.49,18.49,0,0,0-13.65-2.82,23.81,23.81,0,0,0-17.19,12.52,18.85,18.85,0,0,0-34.46-1.71,75,75,0,0,0,.87-8.47l-14.6-.43a1.77,1.77,0,0,0-1.38.36c-.48.51-.2,1.32.06,2,1.75,4.37,1.22,9.26.82,13.94-1.09,12.83-.95,25.72-.81,38.59l.48,43.9a36.84,36.84,0,0,1,14.91-1.28c-1.23-9,.15-18.07.54-27.12.67-15.47-1.56-31,.24-46.43a22.34,22.34,0,0,1,2.28-8.41,8.16,8.16,0,0,1,14.28-1.29,21.57,21.57,0,0,1,3.58,7.74,68.36,68.36,0,0,1,2.4,13.07c.32,3.82.29,7.67.27,11.5l-.3,51.49a33.06,33.06,0,0,1,13.65-.3q1.17-18.75.56-37.56c-.33-10.4-1.07-20.83-.28-31.22.29-3.78.8-7.63,2.49-11s4.72-6.33,8.45-7a6.59,6.59,0,0,1,3.55.25,8.58,8.58,0,0,1,4,4.16c4.66,8.4,4.76,18.48,4.76,28.08l-.06,54.19a42,42,0,0,1,15,.2C2166.15,574.71,2169.61,562.06,2169,550.44Z"/><path class="cls-1" d="M2268.86,540.56a147,147,0,0,0-.47-19.35c-.93-10.3-3.64-21.59-12.21-27.38-4-2.69-8.79-3.85-13.53-4.62-15.25-2.49-31.36-1.42-45.4,5a6.46,6.46,0,0,0-2.46,1.66c-1.07,1.34-1,3.24-.82,4.95l1,11.11c.14-1.44,1.49-2.4,2.74-3.13a64,64,0,0,1,29.43-8.56c7.53-.3,15.79,1.09,20.78,6.73,4.48,5.07,5.28,12.3,5.87,19l-22.37.07c-6.37,0-12.8,0-19,1.47s-12.26,4.39-16.26,9.35c-2.86,3.55-4.51,7.9-5.91,12.24a43.16,43.16,0,0,0-1.87,7.57c-1.28,9.88,3.72,20.07,11.79,25.91s18.77,7.51,28.5,5.36,18.46-7.85,25.17-15.21a142.48,142.48,0,0,0-.13,14.76,29.7,29.7,0,0,1,15.43-.46C2269,571.42,2268.24,555.75,2268.86,540.56Z"/><path class="cls-1" d="M2252,538.29a74.63,74.63,0,0,0-38.52,3.46,15.29,15.29,0,0,0-6.11,3.54,12.41,12.41,0,0,0-2.78,5.73,20.9,20.9,0,0,0,1.58,14.15,18,18,0,0,0,10.82,9.1,24.67,24.67,0,0,0,7.27.79c7.62-.13,15.68-2.44,20.53-8.31a26.07,26.07,0,0,0,3.43-5.65C2251.66,553.67,2253,545.27,2252,538.29Z"/><path class="cls-1" d="M2373.31,489.11l-35.88.48a207,207,0,0,0-1.15-27.83,1.61,1.61,0,0,0-.48-1.2,1.66,1.66,0,0,0-1.1-.19l-12.09.74a1.4,1.4,0,0,0-1.55,1.82l.45,26.21a129.11,129.11,0,0,0-24.63.44,2.18,2.18,0,0,0-1.51.6,2.16,2.16,0,0,0-.32,1.44l.13,10.59a136.32,136.32,0,0,1,26.87-.4c-2.05,11.42.27,23.1.85,34.69.63,12.58-.73,25.7,4.09,37.34a19,19,0,0,0,4.23,6.63c3.78,3.58,9.31,4.46,14.48,5a221.24,221.24,0,0,0,28.43,1.14l0-13.3a77.2,77.2,0,0,1-26.32-3.43,16.3,16.3,0,0,1-6.54-3.35,13.37,13.37,0,0,1-3-4.92c-2.41-6.21-2.36-13.06-2.27-19.72l.5-39.86a373.9,373.9,0,0,1,37.56-2.12A18.48,18.48,0,0,1,2373.31,489.11Z"/><path class="cls-1" d="M2483.75,543.87a143.7,143.7,0,0,0-2.19-30.71c-1-5.77-2.52-11.65-6-16.39-6-8.26-17.35-11.6-27.34-9.56s-18.59,8.77-24.61,17c.42-4.5.66-9,.89-13.54l.76-14.25c.45-8.63.91-17.33-.32-25.89l-16.65.09q-1,68.31.82,136.61l15.43-.25q-.42-31.51,2.18-63a40.81,40.81,0,0,1,2-11,20.26,20.26,0,0,1,15.77-12.83,18.34,18.34,0,0,1,18.07,8.78,28,28,0,0,1,2.61,7.28c5.48,23,.17,47.22,3,70.7a33.68,33.68,0,0,1,15.34-.14C2483.08,572.31,2483.24,557.8,2483.75,543.87Z"/><path class="cls-1" d="M132.83,1107.13c38.31,50.55,85.56,99.37,141,145.68l147.75-151.14c41.37,60.76,106,117.46,189.32,166l181.74-157.5c37.94,57.78,97.21,112,173.86,158.92,44.69-53.91,97-106.21,156.43-156.37,32.35,57.76,79.76,113.37,140.63,164.92,48.05-57.11,107.06-111.87,175.94-163.26l110,165.29q78.66-83.9,176.81-162.61l97.85,167.2L2002.44,1101l110.88,168.14c53.73-59.64,124.63-115.32,209.78-164.75,13.58,57.37,37.56,114.11,71.53,169.28,41-62,114.58-118.39,211.11-161.9,12.66,60.39,45.81,119.67,97.58,174.47l219.33-176.47"/><path class="cls-1" d="M177.63,1098.58l88.55,95.36a1854.69,1854.69,0,0,1,160.53-121.26q86,71.49,172,143c47.18-54.1,113.43-103.94,194.72-146.46,46.82,51.43,101.3,101.09,162.81,148.42,39-56.75,100-109.63,178.45-154.78l113.41,159.32c45.06-53.59,107.7-103.4,184.6-146.77L1555,1222.46c44.27-53.9,105.56-104.21,180.85-148.47q47.45,78,111.82,153c26.91-61.08,86.69-118.37,171.21-164.1,23.61,54.6,60.57,107.72,109.79,157.76,32.49-61.42,112.49-116.09,219.2-149.8-2.06,52.12,16.22,104.42,53.49,153,45-57.75,117.91-109.87,210.69-150.54,24.79,56.18,61.16,111.05,108.33,163.45,39.1-53.51,100.19-102.88,178.27-144.07"/><path class="cls-1" d="M166.64,1107.24l-3,20.27,22-9.19,1.66,34.49,16.06-12.19.29,28.7a56,56,0,0,1,16.38-6.14,91.89,91.89,0,0,0,1.59,19.86c.63,3.29,2.2,7.23,5.54,7.49,5.25.42,10.06-8.71,13.7-4.9q-.42,10.36-.82,20.74a19.09,19.09,0,0,0,21-5.32,27.6,27.6,0,0,0,13.61,23.33A144.11,144.11,0,0,1,299,1187.82c-4.5,6,5.38,14.12,12.14,10.94s9.07-11.56,9.84-19,1-15.56,5.84-21.24l3.68,13.28,19.92-34.13,5.05,13a298.44,298.44,0,0,1,24.67-34.25l6.15,6.78a72.53,72.53,0,0,1,16-24.61l4.1,7,21.75-17.26c.7,6.22,2.51,12.75,7.24,16.85s13.08,4.39,16.61-.78a63.19,63.19,0,0,1-10.47,19.09,97.72,97.72,0,0,0,31.93-3.32l-7.7,20.62,21.84-3.58A82,82,0,0,1,484,1159a40.06,40.06,0,0,1,21.38-4.94,13.33,13.33,0,0,0,20.89,16.51,59.25,59.25,0,0,0,5.7,25.65l12.73-7.31a40.75,40.75,0,0,0,5.88,24.61l18.27-7.36A13,13,0,0,0,589.29,1222a37.55,37.55,0,0,0,18.11,23.84,109.2,109.2,0,0,0,17.77-38.36l10.33,14.61a111.84,111.84,0,0,0,6.73-34.26,67.86,67.86,0,0,0,17,17.67,54.52,54.52,0,0,0,1.89-33.12c1.58,4,3.27,8.25,6.52,11.13s8.57,3.93,11.91,1.14c2-1.72,2.91-4.44,3.59-7a125.05,125.05,0,0,0,4-26,50.53,50.53,0,0,0,8.75,15.87,97.14,97.14,0,0,1,10-33.59,108.25,108.25,0,0,1,10.36,24.59l17.3-43.36,7.93,21.19,20.82-38.79,3.6,17.19a83.09,83.09,0,0,1,26.08-29.27,49.08,49.08,0,0,0,9.46,22.28l12.08-3.49c.24,5.1.47,10.2-1.14,16.52l17.2-1.77,6.24,22,13-2.49a43,43,0,0,0,4.42,28.66l16.13-6.22c-2.21,7.26-2.42,15.91,2.58,21.62s16.31,5.26,18.64-2l6.88,23.07,16.82-5.94c.18,7.48.6,15.63,5.54,21.25s16.09,5.78,18.5-1.3L961,1244.82c1.12,1.35,2.36,2.77,4,3.22,4.12,1.09,7.06-3.88,8.41-7.92q7.22-21.51,14.44-43l12.4,12.5q2.65-15.66,6.53-31.07a24.3,24.3,0,0,0,16.09,9.47l-.11-30.33a25.2,25.2,0,0,0,17.82,9.9l3.16-24.81c-2.35,4.41,4.57,9.11,9,6.76s5.79-8,5.91-13-.48-10.28,1.74-14.76l11,16.49a144.54,144.54,0,0,0,11.38-31,25.14,25.14,0,0,0,15.2,11.18,124,124,0,0,1,8.47-26.66,20.2,20.2,0,0,0,9.76,15.7,64,64,0,0,1,22.07-23.1l1.55,33.43h19.65l-7.71,24.62,22.42-2.39-7,25,25.53-1.76-4.4,23.41c6.89-5.17,17.75-2.51,22.73,4.51s4.54,17,.33,24.49a28.52,28.52,0,0,0,18.88-3.63c-3.5,8.08.3,18.58,8.16,22.54s18.57.78,23-6.84a23.74,23.74,0,0,0,18.66,16.81,140.89,140.89,0,0,0,.94-36.29,34.15,34.15,0,0,0,13.22,12.22,35.16,35.16,0,0,0,5.9-30l13.68,10.07-1.94-30.72a76.32,76.32,0,0,0,20.5,12.94l-.73-22.92c1.31,8.27,13.94,10.54,19.8,4.55s5.28-16.12,1.06-23.36l19.59,9.41a58.63,58.63,0,0,0,1.44-29,50.33,50.33,0,0,0,21.71,14.46l.61-27.09c2.55,6.15,8.83,13.55,14.26,9.7a11.26,11.26,0,0,0,2.71-3.22q9.51-14.73,19-29.46c2.89,5.37,5.77,10.74,8.66,16.89l14.29,4.13a9.68,9.68,0,0,0,10.87,16,45.31,45.31,0,0,0,2.47,19.66l13.92-.22c-1.9,9.88-1,24,9,25.16,2.47.3,5.11-.39,7.4.58,8.38,3.52-1.56,17.53,3.25,25.24a41.49,41.49,0,0,1,20.66,1.12c-2.25,6.83-3.23,14.65.21,21s12.71,9.61,18.16,4.93a66.33,66.33,0,0,0,12.76,35.31,75.9,75.9,0,0,0,26.51-40.94,12.42,12.42,0,0,0,24.15-3.71c.23-7.52-6.27-14.41-4.77-21.78l18.6,6.56.87-25.89a37.55,37.55,0,0,0,16.52,10.73,160.82,160.82,0,0,0,6.64-28.31l16,10.71a85.83,85.83,0,0,1,12.64-31.37,30.67,30.67,0,0,0,10.69,13L1692,1113c.13,5.82,6.15,10.76,11.88,9.76a79,79,0,0,1,23.94-29.23,52,52,0,0,0,1.35,19.29l19.63-3.2-6,20.9,23.52,2.28-3.84,26.37,21.81.29-8,24.54,23.49-3.31a64.72,64.72,0,0,0-3,26.68,43.87,43.87,0,0,1,17.61-2.22,139.87,139.87,0,0,0-3,35.41l24.19-7.95c-.24,4.74-.42,9.76,1.81,13.95s7.78,7,11.89,4.62c2.58-1.51,3.82-4.52,4.88-7.32q6.54-17.14,13.06-34.3c-2.41,4.45,5.13,8.89,9.29,6s4.73-8.8,4.35-13.85-1.23-10.52,1.33-14.9l13.69,5.68-1.21-20.69c4.79,7.33,17.2,4.73,22-2.6s4.25-16.79,3.54-25.52a25.58,25.58,0,0,1,18.21,11l14.91-35.28c-1.48,6.26,8.92,9.57,13.37,4.93s3.75-12.13,1.78-18.25c5.51,1,11.5,1.84,16.42-.81s7.19-10.48,4.32-14.49l30.89-8.23-3,28.08,19.61.25a244.8,244.8,0,0,0-7.27,26.63q11.54,1.85,23,4.27c1.53.32,3.19.74,4.11,2,1.19,1.65.57,3.94-.09,5.86l-6.09,17.83,24.56.54-.13,21.32c0,1.66.08,3.54,1.34,4.61s2.81.92,4.3.8l14.87-1.15-8.17,20.46,18.1-2.23a46.88,46.88,0,0,0,3.37,30.45c7.46-.82,14.72-3.43,23.12-6.59l15.81-24.57c4.12,4.94,10.67,10.36,16.15,7,10.14-6.21-6.62-24.31,1.35-33.13a25.65,25.65,0,0,0,19,4.18l.18-25.7a27.35,27.35,0,0,1,16.85,12.77,69.31,69.31,0,0,0,15-33.76c.21,6.67,10.65,8.35,15.34,3.6s5-12.15,5-18.83c2.54,7.66,13.91,8.76,20.35,3.89s9.1-13.12,11.41-20.86l11.73,10.49q9.45-11.79,17.92-24.32c-.46,8,12,9.43,18.44,4.72s11.14-12.53,19-14a188.32,188.32,0,0,0,.91,32c3.89-5.44,12,3.2,10.35,9.68s-6.86,12.66-4.9,19l14.47,3.42a81.12,81.12,0,0,0-3.72,22.61l13.88-.39c-2.21,5.92-4,12.59-1.51,18.4s11,9.1,15.3,4.49l-1.67,27.12,14-1a77.28,77.28,0,0,0,6.24,25.33,96.58,96.58,0,0,0,22.76-38.74l3.62,9.45c13.57-2.32,18.65-18.81,21-32.37l5.25,9.88a61.74,61.74,0,0,0,16.28-29.94l9.43,10.21a48.47,48.47,0,0,0,18.43-31.83,24.77,24.77,0,0,0,17.64,6.71l3-18.76a23.94,23.94,0,0,0,28,.77l7.93-21.92,9.35,12.7a37.81,37.81,0,0,0,24.24-28.86,21.28,21.28,0,0,1,13.64,15.83,95.76,95.76,0,0,0,27.87-3.54l-4.34,27.37c-.32,2-.62,4.2.28,6,3.43,7.06,16.16-.61,21.69,5l-7,29,21.07-2.71-4.37,33,28.23-1.73-8.13,29.49,27.17-5a46.36,46.36,0,0,0,6.89,31,106.29,106.29,0,0,1,47.86-27l-4.11-15.35a15.45,15.45,0,0,0,20.34,1.17l-4.87-19.55a15.68,15.68,0,0,0,17.47,7.93A72.51,72.51,0,0,1,2787,1178a36.35,36.35,0,0,0,21.82,10.7l2-28.08c3.45,7,12.56,11.37,19.44,7.74s7-16-.38-18.31c-1.36-2.27,3-4.09,5-2.4s2.61,4.62,4.46,6.52c4.28,4.41,12.5,0,13.79-6s-1.81-12-4.8-17.36c5.58,5.69,14.73,8.34,21.83,4.71s10-14.36,4.45-20.09c6.62,3.87,14.25,7.88,21.59,5.66s10.54-14.39,3.42-17.22"/></svg>