<?xml version="1.0" encoding="utf-8"?>
<!-- Generator: Adobe Illustrator 26.0.2, SVG Export Plug-In . SVG Version: 6.00 Build 0)  -->
<svg version="1.1" id="Layer_1" xmlns="http://www.w3.org/2000/svg" xmlns:xlink="http://www.w3.org/1999/xlink" x="0px" y="0px"
	 viewBox="0 0 3103.7 1290.3" style="enable-background:new 0 0 3103.7 1290.3;" xml:space="preserve">
<style type="text/css">
	.st0{fill:none;stroke:#FFC300;stroke-width:6;stroke-miterlimit:10;}
	.st1{fill:none;stroke:#3399FF;stroke-width:6;stroke-miterlimit:10;}
</style>
<path class="st0" d="M99.4,79.9l-79.3,0.8c0.9,7.9,0.6,15.8-0.8,23.6c17.1-1.6,34.3-1.7,51.4-0.4l-0.7,158.3
	C70,275,69.3,289.2,60,297.8c-7.1,6.5-17.5,8-27.1,7.6s-19.3-2.1-28.8-0.8c-1.2,8.1-1.5,16.4-0.6,24.6l33.2-0.9
	c13.5-0.4,27.7-1,39.2-8.1c11.1-6.9,18.1-19.1,21.4-31.8s3.3-25.9,3.3-39v-44.3C100.7,163.1,100.8,120.9,99.4,79.9z"/>
<path class="st0" d="M99.8,10.7c-9.1-0.7-18.3-1-27.4-1c-0.4,0-0.8,0.1-1.1,0.3c-0.2,0.3-0.3,0.6-0.3,1l-1.4,20.4
	c-0.4,5.8-0.8,11.7,0.3,17.4c10.3-1.1,20.6-1.3,30.9-0.5C100.2,35.5,100,22.6,99.8,10.7z"/>
<path class="st0" d="M346.1,143.5c-3.2-13.4-6.5-27.1-14.2-38.5c-9.8-14.5-26.3-23.7-43.4-27.3C273,74.3,257,75.5,242.2,81
	c-14.8,5.6-27.3,15.9-35.8,29.3c-11.1,18-13.1,40.1-12.9,61.2c0.3,25.6,4.4,53.2,22.2,71.6c10,10.4,23.7,16.8,37.9,19.4
	c14.2,2.6,28.9,1.4,42.9-2c5.6-1.2,11-3.2,16-5.9c4.3-2.6,8.2-5.8,11.6-9.5c10.1-10.6,17.1-23.8,20.5-38.1c2.1-9,2.6-18.2,3-27.5
	C348.1,167.5,348.8,155.1,346.1,143.5z"/>
<path class="st0" d="M315.5,186.6c1.6-13,1.5-26.1-0.3-39c-1.3-9.3-3.6-18.6-8.2-26.7s-11.9-15.1-20.8-18c-3.6-1.1-7.3-1.7-11-1.9
	c-10.3-0.7-21.6,0.6-29.3,7.5c-2.6,2.4-4.7,5.3-7.3,7.8c-1.9,1.5-3.6,3.2-5.2,5c-1.5,2.1-2.6,4.4-3.3,6.9c-8,23.9-6.7,50.2-0.3,74.6
	c3.2,12.1,8.2,24.8,18.6,31.8c9.4,6.3,21.8,6.8,32.9,4.3c3.6-0.7,7.1-2,10.4-3.7c8.3-4.6,13.6-13.1,17.4-21.8
	C312.7,204.7,314.4,195.4,315.5,186.6z"/>
<path class="st0" d="M430.4,11l-24.6-1.2c-1.6-0.1-3.4,0-4.3,1.3c-0.4,0.8-0.6,1.7-0.5,2.6l1,248.1c10.2-0.1,20.4-0.5,30.6-1.3
	c-2.8-30.2-2.5-60.5-2.2-90.8c0.1-10.8,0.2-21.6,2.4-32.2c3-14.5,11.2-29.2,25-34.7c6-2.4,12.5-2.8,19-2.7c4.4,0.1,8.9,0.5,13,2.2
	c12.5,5.1,17.4,20,19.4,33.4c5.9,41.5-3.2,83.9,0.9,125.6c9.8-1.2,19.6-1.2,29.4-0.1c-2.6-38.1,0.7-76.4-1.1-114.6
	c-1-21-4.4-43.8-19.7-58.3c-12.5-11.8-31.5-15.7-48.1-11.3s-30.7,16.3-39.5,31.1C430.9,75.9,430.8,43.6,430.4,11z"/>
<path class="st0" d="M735.9,259.2c-1.9-9.7-1.7-19.8-1.5-29.7c0.5-22.7,1-45.3,1.5-68c0.4-16.4,0.7-33.2-4.1-49S716.3,82,700.7,76.7
	c-10.2-3.4-21.3-2.5-31.8-0.2c-5.8,1.2-11.3,3.2-16.6,5.9c-11,6-19,16.6-24.8,27.8l1.7-30.2c-10.3,0.7-20.5,1-30.8,1l1.3,83.9
	c0.1,8,0.2,16,0.1,24c-0.2,9-0.8,17.9-1.1,26.9c-0.5,15.4,0,30.8,1.5,46.2c9.6-1.6,19.3-1.6,28.9,0l0.7-100.4
	c0.1-14.9,0.5-30.6,8.5-43.1c7.2-11.2,20.5-18.3,33.8-17.7s26,9.1,31.4,21.3c4,9.2,3.9,19.6,3.8,29.6c-0.4,36.4,0,72.8,1.2,109.2
	C717.6,259.7,726.7,259.1,735.9,259.2z"/>
<path class="st0" d="M30,88.9l10,5.7c2.3-3.1,5.4-5.6,9-7.1l12,7.8c8.4-3.7,17.3-5.8,26.4-6.5c-0.8,1.7-1.8,3.3-3,4.7
	c-2.3,3.4-3.7,7.4-3.9,11.6c3.9,4.5,7.6,9.2,11,14.1l-12.9,8.4c5.3,7.6,9.5,15.9,12.6,24.6c-5.2,2.6-10,6.2-14,10.4
	c4.8,6.2,9.2,12.8,13.1,19.7c0.4,0.5,0.5,1.1,0.5,1.7c-0.2,0.6-0.7,1.1-1.3,1.4l-10.9,6.8c5.4,5.8,9.6,12.5,12.4,19.9
	c-4.9,3-9.5,6.4-13.8,10.3c5.4,4.3,9.8,9.7,12.8,15.8c0.5,0.7,0.6,1.5,0.4,2.3c-0.4,0.6-0.9,1.1-1.6,1.3l-12.2,5.4
	c5.3,6.4,9.9,13.3,13.8,20.6c0.7,0.6,0.7,1.7,0.1,2.4c-0.3,0.3-0.6,0.5-1,0.5l-12.7,5c3.9,6.2,6.9,12.9,8.9,19.9l-15.2,2.3l3.8,14.3
	l-16.5-3.4l-4,11.9c-3.6-3.5-7.5-6.6-11.8-9.4l-8.6,10.1c-2.7-1.1-4.1-4.2-6.3-6.1c-4.5-4.1-13-2.1-15.2,3.6"/>
<path class="st0" d="M90.6,17.6c-4.3,1.9-8.4,4.5-12,7.6l12.4,10.2"/>
<path class="st0" d="M271.8,83.8c-2.6,3.3-4.8,7-6.4,10.9c-4.2-3.3-8.7-6.3-13.4-8.8l-7.6,15.2c-5-1.3-10.1-2.5-15.2-3.4l-0.8,20.7
	l-18.5,1.8c0.6,12.6,2.4,25.1,5.4,37.3l-13.7,4.8c5.8,5.7,11.1,11.9,15.9,18.4c0.5,0.5,0.7,1.1,0.7,1.8c-0.1,0.7-0.8,1.2-1.4,1.6
	l-14.2,9.4l19.3,15.2c1,0.8,2.1,1.9,1.9,3.1c-0.2,0.6-0.5,1.1-0.9,1.6l-11.2,13.4c5.8,5.4,11.7,10.9,17.5,16.4
	c0.1-1,0.7-1.9,1.6-2.4c0.9-0.5,1.8-0.8,2.8-1c3.7-0.9,7.3-1.7,10.7-2.3c3.5,6.3,7.5,12.4,12,18c5.9-3.6,12.4-6.1,19.3-7.2
	c2.8,3.6,6.1,6.6,10,9c3.5-6.1,7.6-11.8,12.2-17l13.6,7.3c-0.6-7.9-0.3-15.8,1-23.6l19.6-2.7c-4.2-6.3-7.7-12.9-10.5-19.9l18-5.1
	c-5.5-5.8-10.8-11.8-15.8-18.1c6.3-3.9,12.3-8.2,17.9-13c-7.4-3-13.7-8.1-18-14.8c5.4-3.9,10.4-8.5,14.7-13.7
	c-3.5,0.4-6.6-1.7-9.5-3.8l-14.4-10.1c4.7-3.2,8.6-7.4,11.4-12.2c-8.3-2.4-16.5-5.1-24.5-8.2c2.4-3.6,3.8-7.9,4-12.2
	c-5.2,2.6-11.1,3.1-16.8,3.5c-2.6,0.4-5.3,0.3-7.8-0.3C275.5,92.1,271.9,87.5,271.8,83.8z"/>
<path class="st0" d="M421.6,22.4c-4.2,3-8.7,5.7-13.3,8l11,12.2c0.7,0.6,1.1,1.4,1.2,2.4c-0.2,1-0.8,1.9-1.7,2.4l-11.1,8.8
	c6.1,4.1,11.1,9.8,14.3,16.5c-5.7,2.1-10.6,6-13.7,11.2l14,10.6c-5.4,2.8-10.2,6.7-14,11.4c5,2.7,9.5,6.3,13.3,10.5
	c-5.2,3.5-9.5,8.1-12.6,13.5l13.8,11.9c-5.2,2.7-9.9,6.3-13.7,10.7c-0.6,0.5-0.9,1.2-1,2c0.1,0.7,0.5,1.4,1,1.9l12.3,14.2
	c-4.7,2.3-8.8,5.5-12.2,9.4l11.8,13.8c0.6,0.5,0.9,1.2,1,2c-0.2,0.7-0.6,1.4-1.3,1.8l-11.4,9.4c4.6,5.1,8.7,10.7,12,16.6
	c-4.8,2.4-9,5.8-12.3,10.1c2.6,4.5,5.5,8.7,8.9,12.6"/>
<path class="st0" d="M529.4,246.9l-12.8-8.4c3.1-5.6,7.6-10.3,13-13.8l-11.2-12.9c-1.2-0.8-1.5-2.4-0.7-3.6c0.1-0.2,0.3-0.4,0.5-0.6
	l12.2-14.6l-10.3-10.6c-0.6-0.5-1.1-1.3-1.3-2.1c0-0.7,0.2-1.5,0.5-2.1c3.1-6.3,7.1-12,11.9-17.1l-12.2-11.9c-1.4-1-1.8-2.9-0.8-4.3
	c2-5.7,4.5-11.8,9.7-14.8c-6.1-3.4-11.7-7.5-16.7-12.4c2.2-5.5,5.3-10.6,9.3-15l-23.9-7.8l-1.3-12.4c-3,3.8-6.8,6.9-11.2,9.1
	c-0.8,0.5-1.8,0.7-2.7,0.7c-1.1-0.2-2-0.7-2.8-1.4l-10.6-8.1c1.8,4.5-0.4,9.6-4.9,11.3c-1.7,0.7-3.7,0.8-5.5,0.3"/>
<path class="st0" d="M617,91.7c-3.2,3.8-7,7-11.3,9.6l13,9.7c-5.6,4.1-10.8,8.8-15.5,13.9c6.2,3.6,12,7.8,17.3,12.6
	c-6.2,2.4-11.7,6.4-15.8,11.6c6.3,3.7,12.1,8.3,17.2,13.6c-7,3.2-12.6,8.8-15.6,15.9c5.8,2.3,11.1,5.5,15.7,9.6
	c-6.6,2.1-12.1,6.7-15.4,12.8c5.2,4.5,10,9.5,14.2,15c-6.2,2.2-11.1,7-13.5,13.1l10.8,13.3l-11.2,11.9"/>
<path class="st0" d="M726.9,247.7c-3.4-4.1-7.4-7.5-12-10.2l13.7-7.8l-15.5-9.4c5.3-4.7,10.3-9.6,14.9-14.9l-14.9-10.3
	c5.2-5.1,10.2-10.5,14.9-16.1c-5.2-3.2-9.7-7.2-13.5-12l11-15.2c-4.5-2.9-8.7-6.4-12.4-10.4l13.3-20.8l-22.2-12.8l6.4-17.3
	l-23.5,5.1c-4.9-4.8-10-9.4-15.2-13.8c-0.8-0.7-1.8-1.3-2.7-0.9c-0.3,0.2-0.6,0.5-0.8,0.8l-7.1,9c-1.2,1.7-2.7,3.2-4.2,4.6
	c-3.9,3-9.1,3.4-14,3.8"/>
<path class="st0" d="M1144.8,218.4c0.2-20.2,0.3-40.4,0.4-60.5c0-18.4-0.1-37.2-5.1-54.9c-1.2-4.7-3.2-9.3-5.8-13.4
	c-7.2-10.6-21.4-15.5-34-12.9s-23.3,11.8-29,23.3c-6.3-18-26-27.4-44-21.1c-9.2,3.2-16.6,10.2-20.4,19.2l0.1-18.4
	c-8.6,1.4-17.4,1.7-26.1,0.8c-0.6,26.1-1.2,52.2,0,78.3c0.4,8.6,1,17.3,0.9,25.9c-0.1,8-0.9,15.9-1.3,23.9
	c-1,17.4-0.5,34.9,1.5,52.2l27.5-0.2c-2.2-11.4-2-23-1.9-34.6l0.4-38.4c0.2-22.1,0.5-44.3,2.9-66.3c0.5-4.7,1.2-9.7,3.8-13.6
	c5.7-8.6,19.7-9.3,26.9-1.9c6.7,6.9,7.1,17.5,7.1,27.1l0.6,126.7c8.8-1.3,17.8-1.6,26.6-0.9l0.3-79.7c0.1-19,0.2-38.1,2.4-57
	c0.5-4.1,1.1-8.3,3-11.9c4.7-9.1,15.9-12.6,24.9-7.9c2.3,1.2,4.3,2.8,5.9,4.8c5.2,6.5,5.5,15.5,5.5,23.9c0,43,0.1,86,0.2,129.1
	c9-1.6,18.2-2.2,27.4-1.9C1145.3,244.7,1144.7,231.5,1144.8,218.4z"/>
<path class="st0" d="M1136.3,245.5l-8.8-7.6l8.7-9.7c-3.4-3.9-6.5-8.1-9.3-12.5c3.5-3.5,6.8-7.1,9.9-11c-4.3-4.2-8.1-8.8-11.4-13.8
	l12.1-14.4c-3.9-4.6-7.3-9.6-10-14.9c3.3-3.6,6.3-7.3,9.2-11.2l-11.8-15.6l11.2-14.2c0.4-0.4,0.6-1,0.6-1.5
	c-0.2-0.5-0.5-0.9-0.9-1.1l-12.9-9.7c2.9-4.6,4.7-9.9,5.1-15.3l-19.1-2c-2-3.3-4.9-6-8.4-7.7c-2,4.8-5.3,9-9.4,12.2
	c-2.4-0.7-5.1-0.5-7.3,0.7"/>
<path class="st0" d="M1067.1,248.2l-9.5-8.4c4.4-3,8.3-6.7,11.5-11c-4.8-4.1-9-8.9-12.4-14.2l12.2-12.8c-5.6-3.7-10-8.9-12.8-14.9
	c5.2-3.3,9.8-7.5,13.7-12.3c-5.2-4.3-10.1-8.8-14.8-13.6l14.8-19.1l-12-4.2c-0.9-0.3-2-0.9-1.9-1.8c0.1-0.4,0.3-0.8,0.6-1.1
	l15.3-19.8l-17.2-9.6c-0.4-0.2-0.7-0.4-0.9-0.8c-0.1-0.4-0.1-0.8,0.1-1.2l4.4-12.6c-5.6,1.7-11.4,2.9-17.2,3.7
	c-3.5-3.4-7.4-6.3-11.7-8.6c0.7,2.6-1,5.3-3.2,6.8s-5,2-7.6,2.4"/>
<path class="st0" d="M997.8,92.4c-3.7,1.4-7.1,3.6-9.8,6.5c5,4.6,9.4,9.8,13.3,15.4c-5.9,3.3-10.9,8.1-14.6,13.8
	c5.5,2,10.6,4.8,15.1,8.4c-5.1,2.2-9.6,5.6-13.3,9.8c-0.8,1-1.7,2.2-1.2,3.4c0.4,0.8,1.1,1.5,1.9,1.8l12.3,7.2
	c-3.7,0.6-7.3,1.9-10.5,4c-1.1,0.7-2.2,1.6-2.3,2.9c-0.2,1.7,1.5,3,2.9,3.9l9.2,5.9c-3.3,0.7-6.3,2.2-9,4.2c-1.3,1-2.7,2.4-2.7,4.1
	c0,2,1.7,3.6,3.3,4.8l9.2,7.2c-4.9,0-9.7,1.3-14,3.7c4.9,3.6,9.6,7.6,13.9,11.9c-6.2,1.8-11.6,5.6-15.3,10.8
	c5.4,2.8,10.1,6.7,13.9,11.5l-12.6,9.3c3.7,2.6,7.5,5,11.5,7.1"/>
<path class="st0" d="M1292.5,218.6L1346,80.1c-11.1-1.5-22.3-1.9-33.4-1.2c-2.1,12-6.4,23.5-10.7,35l-40.3,107l-51.6-140.7
	l-32.4-1.3l67.2,172.2c0.9,2,1.5,4.1,1.6,6.3c0,2.6-1.1,5.2-2.2,7.6c-4.2,9.3-8.9,18.4-13.9,27.3c-1.5,2.7-3.1,5.4-5.7,7.2
	c-2.8,2-6.3,2.6-9.8,3c-8.5,1.1-17.1,1.8-25.6,2c-0.2,8,0,16,0.6,23.9c10.5-0.8,21.1-1.9,31.6-3.1c9.4-1.1,19.2-2.6,26.7-8.4
	c6.3-4.9,10-12.4,13.4-19.6C1273.5,271.2,1282.7,244.1,1292.5,218.6z"/>
<path class="st0" d="M1199.3,310.8l7.3,9.4c2.3-4,5.4-7.5,9.2-10.3c5.5,2.7,11.1,5,16.9,6.9c-0.6-5.9-0.7-11.9-0.4-17.8
	c8-1.1,15.8-2.8,23.6-5.1c-2.2-7.6-4.5-15.2-7-22.8c6.5-3.6,13.4-6.7,20.4-9.2l-7.7-21.1c6-3,11.8-6.3,17.5-9.9
	c1.9-0.7,2.8-2.7,2.2-4.6c-0.1-0.3-0.2-0.6-0.4-0.8c-2.4-6.4-4.8-12.8-7.2-19.2c7.1-2.9,14-6.3,20.6-10.3l-8.2-20.3
	c6.6-4.4,13.4-8.3,20.4-11.8c-3.1-7.9-5.4-16.2-6.8-24.6c6.9-2.3,13.5-5.3,19.8-8.9l-8.2-23.6c6.6-4.1,13.6-7.4,21-9.8l-5.4-12.4"/>
<path class="st0" d="M1203.1,87c-3.7,2.2-6.9,5.1-9.6,8.5c6.5,1.5,12.5,4.5,17.5,8.9c-5.3,1.7-9.9,5-13.2,9.4
	c7.9,2.2,15.2,6,21.5,11.3c-6.3,0.5-12,3.7-15.6,8.8c8.9,3.1,17.1,8,24,14.4c-4.6,2.6-8.3,6.4-10.8,11c7.9,3,14.9,8.1,20.2,14.7
	c-5.2,2-9.6,5.5-12.7,10.1c7.7,2.6,14.8,6.8,20.8,12.4c-4.9,2.3-8.6,6.5-10.2,11.7c7,0.8,13.3,4.2,17.8,9.6c-3.3,3.2-5.9,6.9-7.8,11
	c-0.4,0.6-0.5,1.3-0.4,2c0.3,0.7,0.8,1.2,1.5,1.5l7.3,4.5"/>
<path class="st0" d="M1535.5,141.4c-1.8-15-7.4-29.8-17.5-41.1c-18.4-20.7-49.5-26.6-76.5-20.3c-13.6,3.2-26.9,9.3-36.4,19.6
	c-5.3,5.8-9.3,12.6-13.2,19.4c-4.5,7.8-8.8,15.8-11.3,24.5c-5.4,18.9-1.3,39,3,58.2c2.5,11,5.1,22.3,11.6,31.5
	c5.9,8.4,14.6,14.4,23.6,19.3c7.6,4.3,15.8,7.6,24.3,9.7c7.9,1.7,15.9,2.5,24,2.4c22.2,0,44.2-4,65-11.8c-1-10.7-1.4-21.4-1.3-32.1
	c-3,3.9-8,5.8-12.7,7.4c-17.2,6.1-34.9,12-53.1,11.8s-37.4-7.6-47.1-23.1c-7.5-11.9-8.4-26.6-8.5-40.7c42.9,0.5,85.8,0.1,128.8-1.1
	C1536.7,163.6,1536.8,152.1,1535.5,141.4z"/>
<path class="st0" d="M1505,138c-1.6-16.2-13.8-30.9-29.6-35.4c-9-2.5-18.6-1.9-27.7,0.3c-8.6,2-17,5.5-23.2,11.8
	c-3.2,3.4-5.8,7.3-7.9,11.6c-4.8,9.6-7.8,20-8.7,30.6c32.4-5.8,65.8-1.6,98.6-4.4c0.8,0.1,1.6-0.5,1.7-1.3c0.1-0.4,0-0.8-0.3-1.1
	C1507,146.1,1505.4,142,1505,138z"/>
<path class="st0" d="M1529.4,165.2c-2.9-1.8-6.2-2.9-9.7-3.3l7.9-15.4l-14.3-12.8c-0.8-0.5-1.3-1.4-1.5-2.4c0.2-0.9,0.7-1.7,1.4-2.3
	c2.4-2.4,4.1-5.4,5.1-8.7c0.5-1.2,0.5-2.5,0.1-3.7c-0.5-0.9-1.3-1.6-2.2-2.1c-5.7-3.5-12.1-5.8-18.8-6.6c2.9-4.1,3.7-9.4,2-14.2
	c-2,2.4-4.4,4.5-7,6.2c-0.6,0.5-1.4,0.8-2.2,0.8c-0.7-0.2-1.4-0.5-1.9-1.1l-15.9-13.7c-0.7,4.1-3.4,7.5-7.3,9
	c-3.8-3.7-8.4-6.6-13.5-8.4c0.2,3.8-1.3,7.5-4.2,10l-20.2-3.6l1.4,7.6l-16.7,6.1c-0.5,0.1-0.9,0.4-1.2,0.8c-0.3,0.6,0,1.4,0.4,2
	l3.7,6.5c-6,2.5-11.5,5.8-16.7,9.8c-0.8,0.3-1.1,1.2-0.8,2c0.1,0.3,0.4,0.6,0.6,0.7l5.9,6c-6.7,2.3-12.4,6.8-16.3,12.7
	c3.8,4.2,8.1,8,12.9,11.1c-6.2,0.5-11.8,3.7-15.2,8.9c-0.5,0.7-0.8,1.5-0.7,2.4c0.2,0.9,1.1,1.4,1.9,1.9l16.4,9.5
	c-4.9,1.5-9.4,4.2-13.1,7.9c-1.1,1-2.1,2.5-1.5,3.9c0.4,0.8,1.1,1.3,1.9,1.7l15.8,9.2c-5.8,4.2-9.4,10.7-10,17.8
	c5.3-0.6,10.7-0.1,15.9,1.3c-1.8,5.8-2,12.1-0.5,18c4-2.8,8.5-5,13.2-6.5c1.4,6.3,3.9,12.2,7.5,17.6c4.1-3.2,8.9-5.6,14-6.9
	c1.4,5.2,4.7,9.7,9.4,12.5c3.6-5.3,9.1-9.1,15.3-10.6c3.8,3.8,8.1,7.1,12.8,9.8c0.4-5.7,3.5-10.9,8.3-14.1
	c3.5,4.7,8.2,8.4,13.7,10.4c1.5-7.3,5.6-13.8,11.6-18.2c2,3.4,4.2,6.6,6.7,9.6"/>
<path class="st0" d="M1416,163.1c2.3,2.7,5.2,4.8,8.5,6.1c5.4-3.8,11.3-7,17.4-9.4c1.6,3.3,4.1,6,7.2,8c0.4,0.3,0.9,0.5,1.4,0.6
	c0.6,0,1.2-0.2,1.7-0.5l14.8-7c2.6,3.6,6.1,6.5,10.1,8.3c4.4-4,9.5-7.2,15.1-9.3c3.1,3.8,7,6.7,11.5,8.6c1.5-3.2,4.1-5.7,7.4-7.1"/>
<path class="st0" d="M1741.3,116.8c-15.1-10.7-34.5-15.8-52.6-12.1s-34.6,16.6-40.8,34c-3.3,9.3-3.8,19.4-4,29.4
	c-0.8,31-0.3,62.1,1.7,93.1c-10.8-0.4-21.5-0.5-32.3-0.4l0.2-13l1-55.4c0.7-37.4,1.3-74.8,0.6-112.2c9.7-1.2,19.5-1.9,29.2-2.2
	c-0.5,12.8-0.2,25.5,0.8,38.3c3.5-18.7,20.3-33.1,38.8-37.8s38.2-1.1,56,5.5c1.1,0.3,2.1,0.9,2.9,1.8c0.7,1.2,0.9,2.5,0.8,3.8
	C1743.2,99.2,1742.8,108.8,1741.3,116.8z"/>
<path class="st0" d="M1636.3,249.1l-14.7-7.6c5.2-5.4,10.5-10.6,16.1-15.5c-7.3-3.7-13.7-9-18.6-15.6c6.7-4.2,13.2-8.5,19.6-13
	c-6.9-3.4-13-8.2-18-14.1c-0.4-0.3-0.7-0.8-0.7-1.3c0-0.8,0.8-1.2,1.5-1.5l17.6-8.3l-18.3-19.2c8-2.3,15.3-6.5,21.2-12.4
	c-7.8-4.8-14.7-10.9-20.6-17.9c6.6-1.3,12.7-4.5,17.5-9.3l-17.2-16.9l10.6-8.3"/>
<path class="st0" d="M1734.8,101.6c-4.1-5.4-9.2-9.8-15.1-13.1c-0.5-0.3-1-0.5-1.6-0.4c-0.6,0.2-1,0.7-1.3,1.2l-4.6,7.4
	c-5-6-11.7-10.4-19.1-12.6c0.7,3.8,1.1,7.6,1.4,11.5c-8.9-1-17.8-0.8-26.6,0.5l4.8,6.2c-6.9,2.8-13.4,6.3-19.6,10.4"/>
<path class="st0" d="M1811.8,260c10.4,1.8,20.9,2.9,31.5,3.3c16.2,0.6,33-0.6,47.7-7.5s27.2-20.2,29.6-36.2c0.5-4.4,0.5-8.8,0-13.1
	c-1.7-15.8-8.9-32-22.7-39.8c-5.2-2.9-11-4.5-16.7-6.1l-37.1-10.1c-8.9-2.4-18.8-5.6-23.2-13.7c-4.5-8.5-1-19.4,5.7-26.2
	c10.6-10.7,27.2-13.2,42-11s28.8,8.3,43.2,12.6c-1.9-7.7-1.9-15.7,0-23.4c0.3-0.8,0.3-1.8,0-2.6c-0.5-0.6-1.1-1-1.8-1.2
	c-24.2-8.4-50.2-10.6-75.4-6.4c-9.8,1.6-19.9,4.4-27.2,11.2c-5.5,5-8.9,11.9-12.1,18.7c-4,8.7-7.7,17.8-7.2,27.4
	c0.8,15.4,12.9,28.3,26.7,35.3s29.4,9.3,44.4,12.8c6.3,1.4,12.7,3.1,18.2,6.5s10.2,8.6,11.5,15c2.1,10.7-5.6,20.8-13.6,28.1
	c-2.3,2.4-5.1,4.3-8.2,5.6c-2.6,0.9-5.3,1.3-8,1.3c-24.8,0.9-48.8-7.6-72-16.3l1,30.8C1796.4,256.7,1804.8,258.7,1811.8,260z"/>
<path class="st0" d="M1901.9,90.7l-7.4,7.8c-5.3-5.7-12-9.9-19.3-12.4c0.5,3.4-3.2,6-6.7,6.1s-6.5-1.7-9.7-2.9
	c-4.8-1.8-9.9-2.6-14.9-2.2l2.9,7.8c-10.1-0.1-20.2,0.5-30.2,1.9l3.9,6.6c0.2,0.3,0.3,0.6,0.3,1c-0.1,0.5-0.5,0.8-0.9,1l-17.2,10.2
	c2.9,3.9,6.4,7.5,10.3,10.4c-6.7,2.8-12.4,7.6-16.4,13.7c6.9,3.5,14.4,5.6,22.2,6.1c-4.4,6.1-4.7,14.2-0.7,20.6
	c5.8-1.7,7.8-9.3,13-12.3c0.5-0.4,1.1-0.5,1.8-0.4c0.9,0.2,1.4,1.1,1.8,1.8l10.8,20.7c3-7.1,9.5-12.1,17.1-13.4
	c-2.1,5-1.7,10.8,1.2,15.4c9.6-4.7,20.4-6,30.8-3.6l-9.1,4.4c-0.8,0.3-1.6,0.9-2.1,1.6c-1.5,2.3,1.5,4.9,4,6.1
	c8.2,3.9,15.9,8.7,23,14.3c0.5,0.3,0.8,0.7,0.9,1.3c0.1,0.8-0.8,1.4-1.6,1.6c-2.4,0.8-5,0.6-7.5,0.9s-5.2,1.7-5.9,4.1
	c-0.5,1.8,0.2,3.7,0.8,5.4l8.6,21.9c-7.6-1.1-15.4-1-23,0.5c-1.5,0.3-3.2,0.8-4.1,2.1s-0.5,3.1-0.2,4.6l2.6,11.7
	c-9.4-3.6-19.1-6.6-28.9-8.8c-0.7-0.3-1.5-0.3-2.2,0c-0.6,0.4-1.1,1-1.3,1.7l-4.6,10.4l-23.5-16c-0.5-0.4-1-0.6-1.7-0.7
	c-0.8,0-1.4,0.8-2,1.4c-2.5,3-5.6,5.6-9,7.5c-0.7,0.5-1.6,0.7-2.5,0.7c-0.9-0.3-1.7-0.9-2.2-1.6l-10.3-12.1"/>
<path class="st0" d="M2073.4,211.8l-42.2-0.4c1.4,14.4,2.7,29.3-1.1,43.3c-1.2,4.5-2.9,8.9-4.5,13.3c-4.6,13-7.8,26.4-9.5,40
	c8.7-2.2,17.9-2.5,26.7-0.8c-0.8-3.9,1.4-7.6,3.5-11c9.5-15.4,17.2-31.7,24.9-48.1c0.8-1.6,1.5-3.4,2-5.1c0.5-2.5,0.7-5.1,0.5-7.7
	C2073.7,227.2,2073.5,219.2,2073.4,211.8z"/>
<path class="st0" d="M2058.4,223.1l-13.7,8.2c-0.6,0.3-1.1,0.7-1.4,1.3c-0.5,1.1,0.3,2.4,1.1,3.4l12,14.9
	c-8.2,2.6-15.5,7.3-21.3,13.6c-1.3,1.5-2.7,3.3-2.3,5.2c0.5,1.4,1.4,2.6,2.6,3.5l8.2,7.2c-7.1,3.1-13.2,8.3-17.3,14.9"/>
<path class="st0" d="M2356.6,226.1c5.5-14.5,9.3-29.5,11.1-44.9c2.3-19.3,1.6-39.3-4.7-57.8s-18.6-35.2-35.7-44.6s-39-10.6-55.9-0.9
	c-8.9,5.1-16,12.7-22.9,20.4c1.2-7.7,1.6-15.4,1.3-23.2c-10.2,0.9-20.5,0.8-30.6-0.1c1.5,15.1,1.6,30.3,1.8,45.5
	c0.5,68.2,1,136.4,0.4,204.6l28.8-2.5c-0.7-30-0.4-60,0.9-90c11.4,17.9,33.5,27.8,54.6,26S2349.4,245.1,2356.6,226.1z"/>
<path class="st0" d="M2334.5,188.2c1.4-13.9,2.9-28,1.7-41.9s-5.3-28-13.9-39.1c-2.3-3.2-5.3-5.9-8.8-7.9
	c-5.3-2.7-11.6-2.6-17.6-2.3c-9.8,0.5-20.2,1.4-28.1,7.3c-9.8,7.3-13.2,20.2-15.3,32.2c-2.9,16-4.6,32.4-2.4,48.5s9,32,21,43
	c4.2,3.8,9.1,7.1,14.7,8.1c4.3,0.7,8.7,0.4,12.8-0.9C2319.1,229.6,2332.4,208.6,2334.5,188.2z"/>
<path class="st0" d="M2237.2,88c-3.2,2-6.7,5-6.4,8.8c0.5,5.5,8.4,8,8.7,13.5c0.5,6.9-11.1,9.7-11.1,16.7c0,2.8,2,5.1,3.8,7.2l9,10
	c-3.8,2.7-7.6,5.5-10.2,9.4s-3.7,9-1.6,13.2c1.1,2.3,3.1,4,4.9,5.8c3.4,3.5,6.3,7.5,8.5,11.8c-4.5,3.5-8.6,7.5-12.3,11.9
	c-1.8,2.1-3.6,4.9-2.7,7.5c0.5,1.6,1.9,2.8,3.3,3.8l13.1,10.1c-5.4,2.5-10.4,5.9-14.8,9.9c-0.9,0.8-1.9,1.9-1.8,3.1
	c0.2,1,0.8,1.9,1.6,2.5l13.5,12.8c-5.1,2-9.6,5.5-12.8,10c-0.7,0.9-1.2,2-1.2,3.1c0.2,1,0.7,2,1.4,2.7l12.1,15
	c-3.7,5-12.3,6.1-13.4,12.3c-0.4,2.4,0.6,4.8,1.8,6.9c2.4,4.3,5.7,8,9.6,10.9"/>
<path class="st0" d="M2255.6,223c10.1,10.3,21.8,18.9,34.8,25.2c-0.4-1.9,2.2-2.7,4.1-3c4.4-0.8,8.3-3.2,11.1-6.6
	c3.4,5.9,8.9,10.2,15.3,12.2c0-7.6,1.2-15.2,3.6-22.5c8.3-1,16.4-3.5,23.8-7.6c-4.1-2.4-7.7-5.8-10.4-9.8c-0.5-0.6-0.7-1.3-0.8-2
	c0.1-0.9,0.5-1.7,1.2-2.4l19.6-24.1h-12.2c-2.7-3.6,0.9-8.3,3.9-11.7c6-6.8,10.2-14.9,12.2-23.7c-5-3-11.8,5.5-16.6,2.1
	c-3.3-2.3-1.6-7.4,0-11.1c3.3-7.4,5.1-15.4,5.4-23.5c-3.7-0.3-4.8,5.9-8.4,6.8c-3.5,0.8-5.6-3.7-6.4-7.2l-6.2-28.2
	c1.4,4-3.3,8-7.6,7.7s-7.8-3.2-11.2-5.7c-5.2-3.9-10.9-7.1-16.8-9.8l0.9,10.3c-6.8,1-13.6,0.6-20.2-1.3c0.5,3.1-1.5,6.2-4.2,7.8
	s-5.8,2.2-8.9,2.8"/>
<path class="st0" d="M2556.4,251.2c-2.6-32.8-3.1-65.8-1.4-98.7c0.6-11.8,1.5-23.7-0.1-35.4s-6.1-23.4-14.6-31.6
	c-4.8-4.5-10.6-8-16.8-10.2c-29.7-11-63,1.8-77.6,29.9c4-33.8,4.9-68,2.8-102c-10.4,1.1-21,1.5-31.4,1.1c4,24.6,0.5,49.7,0.1,74.6
	c-0.2,10.9,0.2,21.8,0.6,32.6l5.1,143.5l26.8-0.4l1-83.4c0.1-10.2,0.2-20.4,1.3-30.6c0.8-7.2,2-14.4,4.9-21
	c4.9-11.1,14.9-20.1,26.7-22.9s25.2,0.9,33.1,10.1c7.6,8.7,9.6,20.9,10.7,32.3c3.9,39.1,1.4,78.6-1.2,117.8
	C2536.6,253.8,2547.5,252.4,2556.4,251.2z"/>
<path class="st0" d="M2438,18.8c-3.9,2.1-7.3,5-9.8,8.7c5.6,4.3,10,9.9,12.8,16.4c-5.5,2.6-10.1,6.7-13.3,11.9
	c5.1,4.2,9.3,9.3,12.3,15.2c-6,3-10.9,7.7-14.3,13.5c-0.7,1-1,2.1-0.9,3.3c0.3,1,0.9,2,1.7,2.7c3.5,3.6,7.1,7.2,10.6,10.7
	c-5.8,2.2-10.1,7.1-11.5,13.1c-0.5,1.7-0.5,3.6,0,5.3c2.2,6.9,13.6,7.8,15.1,15c-5.5,2.2-10.9,5-15.8,8.3c7.4,5.8,13.8,12.8,19,20.6
	c-7.4,3.2-13.6,8.5-17.9,15.3c7.2,2.8,13.2,7.9,17.2,14.5c-6,2.7-11.2,7-14.9,12.4l14.3,21c-4.5,2-8.6,4.9-11.8,8.6"/>
<path class="st0" d="M2535.2,236c1.8-4.6,5.4-8.3,10-10.1c-4.5-2.6-9.5-6-9.8-11.2c-0.5-8.1,10.7-12.5,11.9-20.5
	c-4.5-1.1-8.9-2.9-12.9-5.3c5.3-8,9.5-16.8,12.4-25.9c-2.4,0.6-4.9,1.2-7.3,0.6s-4.6-2.7-4.4-5.1c0.2-1.1,0.6-2.1,1.1-3
	c4-7.3,8-14.5,11.9-21.8c-3.2,0.9-6.6,1.7-9.8,1.2s-6.6-2.7-7.2-6c1.8-11.4,1-23-2.6-34c2.2-1.1,3.5-3.3,3.4-5.7
	c-11.8-0.6-23-4.9-32.1-12.3l-1.1,9.8c-5.2,0.9-10.4-2.2-15.6-1.5c-3.9,0.5-7.2,3-8.8,6.6"/>
<path class="st0" d="M2704.5,207.1c-13.5,0.1-27,0.5-40.5,1.1c-0.7,5.3-0.9,10.5-0.7,15.8v9.8c0,7.2,0.1,14.4,0.3,21.6l42.1-3
	C2703.6,238.2,2702.3,224,2704.5,207.1z"/>
<path class="st0" d="M2679.1,218.6c3.7,3.9,7.8,7.3,12.2,10.2c-2.2,3.8-5.8,6.5-9,9.5s-6,7-5.8,11.4c0.7,0,1.2-0.5,1.2-1.2
	c0,0,0-0.1,0-0.1"/>
<path class="st0" d="M2950.3,169.1l0.6-163c0.1-0.9-0.1-1.7-0.7-2.4c-0.5-0.3-1.1-0.4-1.8-0.4h-27.4c-1.2,0-2.7,0.2-3.2,1.2
	c-0.2,0.7-0.2,1.5,0,2.2c6.8,31-0.4,63.5,3.9,95c-6.9-12.6-19.3-21.7-33.1-25.7s-28.8-2.9-42.3,1.9c-8.9,3.2-17.4,8-23.6,15.1
	c-9.8,11.2-12.9,26.5-15,41.2c-2.4,17-3.7,34.1-3.9,51.2c-0.1,8.4,0,17,2.6,25.1c2.8,8.9,8.4,16.7,14.7,23.5
	c7.7,8.3,16.7,15.3,26.5,20.8c6.9,3.9,14.3,7,22.1,7.9c20.4,2.2,39.3-11.6,51.8-27.9c-0.1,6.7,0.2,13.4,0.9,20.1
	c9.3-2.9,19.2-3.3,28.7-1.1C2952.4,225.3,2950.2,196.6,2950.3,169.1z"/>
<path class="st0" d="M2919.7,146.9c-3.1-6.8-3.9-14.4-5.5-21.7s-4.6-14.8-10.8-19.2c-3.3-2.4-7.3-3.6-11.2-4.6
	c-5.6-1.5-11.2-2.8-16.9-3.8c-5.5-1-11.2-1.7-16.4,0.3c-3.9,1.5-7.1,4.5-9.8,7.7c-12.2,14.6-15.7,34.6-16.3,53.6
	c-0.7,24,3.6,50.3,21.5,66.3c12,10.7,31,14.9,44.3,6c10.3-6.9,14.9-19.5,17.5-31.6C2920.1,181.8,2926.4,161.6,2919.7,146.9z"/>
<path class="st0" d="M2943.5,231.1l-17.1-16.5l17.4-23.3c-4.9-3.6-9.5-7.6-13.7-12.1c-1.3-1.3-2.6-2.9-2.8-4.7
	c-0.3-2.5,1.3-4.7,2.8-6.6l13.9-17.7c-7.3-3.2-13.8-8-19-14c5.9-6.6,11.2-13.8,15.7-21.5c0.5-0.6,0.7-1.4,0.8-2.2c0-1.2-1.1-2.2-2-3
	c-4.8-4.1-8.5-9.2-11-15c-0.4-0.8-0.6-1.8-0.5-2.7c0.4-1.1,1.2-2,2.1-2.6c6-4.7,10.7-10.8,13.7-17.8c-5.1-0.2-9.2-4.2-12.5-8.2
	c-2.2-2.7-4.3-5.6-4.8-9c-1.1-7.8,6.6-13.6,12.6-18.6c1.6-1.3,3.2-3.1,2.7-5.1c-0.4-1.6-2-2.4-3.4-3.3c-4.9-3.1-8.6-7.7-10.5-13.2"
	/>
<path class="st0" d="M2898.4,88.7c-3,0.7-5.7,2.2-7.8,4.4c-3.8-4.8-9.3-8.1-15.4-9.3c0.9,1.5-0.1,3.5-1.6,4.3
	c-1.6,0.7-3.4,0.9-5.1,0.7l-24.5-1.3l5,8.5c-10.2,2.4-19.4,7.9-26.3,15.8c-0.5,0.5-0.9,1.2-1,1.9c0.1,0.9,0.5,1.7,1.1,2.3l7.4,8.6
	c-5.5,2.8-10.4,6.7-14.2,11.6c-0.9,1-1.5,2.2-1.8,3.5c-0.6,3.4,2.8,6,5.7,7.9s6,5.1,4.7,8.3c-0.7,1.8-2.5,2.9-4.1,4
	c-4.2,3.2-6.7,8-6.9,13.2c-0.1,0.8,0.1,1.6,0.4,2.4c2.1,3.6,8.5-2.1,11.5,0.8c-8.1,2-13.8,10.8-12.4,18.9c0.2,1.7,1,3.4,2.3,4.6
	c1.9,1.5,4.6,1.4,7,1.8c3.7,0.6,7.1,2.6,9.4,5.5l-7.3,7.3c-2.2,2.2-4.6,5.1-3.7,8.1c1.3,4.2,8.1,3.7,10.7,0c1.2-1.8,3.1-4.3,4.8-3.1
	c0.5,0.5,0.8,1.1,1,1.7c2.6,7.3,5.2,14.6,7.8,21.9c-1.3-4.2,2.8-9,7.2-8.4s6.9,5.3,8.7,9.4l5.2,11.9c3-1.1,3.8-4.7,4.9-7.7
	s3.8-6.2,6.7-5c3.6,1.2,4.1,7.9,7.8,7.4c1.8-0.2,2.8-2.1,3.7-3.6c3.4-5.5,9.3-9,15.8-9.5"/>
<path class="st0" d="M3099.5,206.5c-13.2-1-26.5-0.1-39.4,2.7c-0.9,16-1.2,32.1-0.7,48.2c13.6-2.3,27.5-3.1,41.2-2.2
	C3099.6,238.6,3099.5,222,3099.5,206.5z"/>
<path class="st0" d="M3078.8,216.5l10.4,15.3c0.4,0.5,0.6,1.1,0.6,1.7c-0.1,0.7-0.9,1.1-1.6,1.4l-12.1,5.3c-1.5,0.6-3.4,1.2-4.4-0.1
	"/>
<path class="st0" d="M617.1,553.3c0-17.2,0.2-34.3,0.5-51.5c12.2-1.1,24.5-1.3,36.7-0.7c-0.9-4.1-1.3-8.2-1.2-12.4
	c-11.7-0.1-23.3,0-35,0.3l-0.3-27.8h-15.5c-0.2,0-0.5,0-0.7,0.1c-0.5,0.3-0.5,1-0.4,1.5c0.9,9.1,0.8,18.3-0.2,27.4
	c-8.1-0.4-16.2-0.5-24.4-0.2c-0.8-0.2-1.5,0.2-1.8,1c-0.1,0.2-0.1,0.5,0,0.7l0.2,11.3c8.6-0.9,17.2-1,25.8-0.3l0.4,44.3
	c0.1,6.8,0.1,13.7,2,20.3s5.6,12.9,11.5,16.3c5.1,3,11.3,3.5,17.2,3.7c7.6,0.3,15.3,0.2,22.9-0.2c-0.7-4.3-1.1-8.6-1-13l-23.5-1.5
	c-2.4,0-4.8-0.5-7.1-1.4c-3-1.5-5-4.7-5.8-8S617.1,556.4,617.1,553.3z"/>
<path class="st0" d="M768,523c-2.4-10.2-5.4-21.4-14.1-27.3c-3-1.9-6.2-3.3-9.6-4.3c-4.3-1.4-8.6-2.7-12.9-4c-2.6-0.9-5.3-1.4-8-1.5
	c-3.1,0.2-6.1,1-8.9,2.3c-11,4.7-21.6,12.2-25.8,23.4c-1.2,3.5-2.1,7.1-2.6,10.8c-0.8,4.8-1.5,9.6-2.2,14.5
	c-0.8,5.9-1.5,11.9-0.1,17.7c1.1,3.9,2.8,7.7,5,11.2c2.3,4.2,5.1,8,8.3,11.4c8.5,8.5,21.1,12,33.2,11.8s23.8-3.6,35.4-7
	c-1.1-5.3-1.1-10.8-0.2-16.2c-9.1,4.5-18.9,7.5-29,8.6c-11,1.2-23.4-0.2-30.9-8.4c-6.1-6.7-7.6-16.4-8.3-25.5
	c8.7,1.3,17.6,1.2,26.4,1.1l45.8-0.4C768.9,535.1,769.3,528.7,768,523z"/>
<path class="st0" d="M751,518.7c-1.6-8.3-8.4-15.3-16.5-17.8c-8.3-2.3-17.3-0.5-24.1,4.9c-6.7,5.4-10.9,13.3-11.7,21.9
	c0,0.2,0,0.4,0.1,0.6c0.2,0.1,0.4,0.2,0.6,0.2l26.1,0.9c9.3,0.3,18.7,0.7,27.7-1.3C751.7,525,751.5,521.5,751,518.7z"/>
<path class="st0" d="M849.2,487.6c-13.3-1.6-28,0.7-37.4,10.3c-6.7,6.8-9.8,16.2-12.7,25.3c-1.2,3.4-2.1,6.8-2.6,10.3
	c-0.3,2.7-0.4,5.4-0.2,8.1c0.8,13.8,5.9,28,16.4,37.1c8,6.9,18.8,10.4,29.4,10.5s21.1-3.3,30.3-8.5c-0.4-5.1-0.3-10.2,0.3-15.3
	c-8.7,5.5-18.4,9.7-28.6,9.8s-20.9-4.5-26-13.3c-2-3.7-3.3-7.7-4-11.8c-1.9-9.8-2.1-20.1,1.4-29.4s11.1-17.4,20.8-19.6
	c3.3-0.7,6.6-0.9,9.9-0.6c3.6,0.1,7.2,0.8,10.6,2c5.8,2.1,10.6,6.1,15.3,10c-0.8-6-0.7-12.1,0.2-18.1
	C865,490.8,857.2,488.5,849.2,487.6z"/>
<path class="st0" d="M978.3,567.8v-35.6c0-8.5,0-17.1-2.7-25.2s-8.3-15.6-16.4-18.2c-3.7-1.1-7.6-1.4-11.4-1.1
	c-5.9,0.2-11.7,1.6-17,4.1c-5.4,2.5-9.7,6.7-12.4,12c1.5-17.8,1.9-35.7,1.3-53.5c-5.5,0.9-11.1,1.1-16.6,0.7l0.3,138l16.5-1
	c-0.3-4.8-0.2-9.6-0.1-14.4l1-44.8c0.2-8.1,0.9-17.3,7.1-22.5c2.9-2.4,6.7-3.5,10.4-4.4c4.5-1,9.4-1.6,13.5,0.6
	c4.7,2.5,6.9,8,8.2,13.1c2.7,11.4,2.3,23.2,2.2,34.9c-0.1,12.5,0.1,25.1,0.7,37.6c5.4-0.9,10.8-1.2,16.3-0.8
	C976.9,580.8,978.3,574,978.3,567.8z"/>
<path class="st1" d="M1195.1,457.1l-16.6,0.9c-2.2,4.1-4.1,8.2-5.7,12.5c-1.7,4.4-3.1,9-4.9,13.3c-2,4.9-4.4,9.5-6.8,14.2
	c-17.9,35.1-34.3,70.9-49.2,107.4c5.1,0,10.3-0.4,15.4-0.9c0.5-2.5,1.4-4.9,2.6-7.1l23-49.3C1167,517.8,1181.2,487.5,1195.1,457.1z"
	/>
<path class="st0" d="M1407.4,523.1c0.5-23.9,0.7-47.8,0.6-71.8c-5.5-1-11.1-1-16.6,0c-1.3,18-0.8,36,1.4,53.9
	c-7.9-16-27.2-22.6-43.2-14.7c-6,3-11,7.8-14.2,13.7c-1.6,3.2-2.9,6.5-3.8,9.9c-3.1,10.5-5,21.2-5.6,32.1c-0.3,3.3-0.1,6.7,0.5,10
	c0.9,4.3,3.1,8.1,5.5,11.8c3.1,4.9,6.6,9.6,11.1,13.3c14.6,11.8,36,9.5,47.8-5.1c0.3-0.4,0.7-0.8,1-1.3c-0.5,4-0.5,8.1-0.1,12.1
	c5.2-1,10.6-1,15.8,0C1407.4,565.6,1407,544.3,1407.4,523.1z"/>
<path class="st0" d="M1390.6,538.1c0-5.9,0-11.9-1.2-17.6s-3.9-11.4-8.4-15.2c-5.1-4.2-11.8-5.8-18.2-4.4c-6.4,1.5-11.8,5.6-15,11.4
	c-2.9,5.2-3.7,11.4-4.2,17.3c-0.6,7.1-0.9,14.3,0.4,21.3s4.4,13.9,9.6,18.7s12.8,7.4,19.7,5.5c7.2-1.9,12.6-8.3,15-15.3
	S1390.6,545.1,1390.6,538.1z"/>
<path class="st0" d="M1516.4,549.7c0.5-11.9,0-23.9-1.7-35.7c-0.6-4.3-1.4-8.6-3.5-12.3c-2.6-4.5-7-7.8-11.8-9.8s-10-3-15.1-3.8
	c-5.9-1-11.9-1.8-17.8-0.9c-3.5,0.6-6.9,1.6-10.2,2.8l-13,4.4c-0.4,0.1-0.7,0.3-0.9,0.5c-0.2,0.3-0.3,0.8-0.2,1.1l0.4,13.9
	c4.6-3.3,10.2-4.9,15.7-6.4c9.8-2.7,20.7-5.3,29.9-1c8.6,4,13.9,14.2,12.7,23.9c-15.3-1.2-30.7-0.1-45.6,3.3
	c-3.2,0.7-6.4,1.6-9.1,3.5c-5.8,4-7.8,11.6-9.1,18.6c-1.3,6.7-2.2,14,0.9,20c2.4,4.5,6.8,7.6,11.2,10.2c5.7,3.4,11.9,6.5,18.5,7
	c6.4,0.4,12.7-1.7,18.3-4.9s10.4-7.5,15.2-11.7l-0.5,14.4c5.3-1,10.8-1.1,16.2-0.1C1516,574.4,1515.9,562.1,1516.4,549.7z"/>
<path class="st0" d="M1499.8,537.1c-8,1-16.2-0.2-24.2,0.3s-16.7,3.2-21.2,9.9c-2.6,4-3.5,8.8-2.7,13.5c0.5,3.2,1.9,6.2,4,8.6
	c3.1,3.3,7.6,4.8,12,5.5c3.4,0.6,6.8,0.7,10.2,0.1c7.9-1.5,14.5-7.5,18-14.7S1500.2,544.8,1499.8,537.1z"/>
<path class="st0" d="M1584.9,546.1v-44.8c12.4,0.4,24.9,0,37.3-1.2l-0.5-11.8c-11.5,1-23.1,1.2-34.7,0.8c-1,0-2.2-0.2-2.7-1
	c-0.3-0.6-0.4-1.3-0.2-2c0.9-8.5,1-17,0.3-25.5l-15.3,1.2c-0.7,0-1.5,0.2-2,0.7c-0.3,0.7-0.4,1.5-0.1,2.2c1.8,8.4,2.2,17.1,1.2,25.7
	c-8.4,0.3-16.9,0.2-25.3-0.1l-1.1,12.6c9-0.5,18-0.4,26.9,0.3c0.2,20,1,40,2.6,59.9c0.4,5.5,1.1,11.4,4.7,15.5
	c3.2,3.7,8.1,5.3,12.9,6.5c10.9,2.8,22.4,4.1,33.3,1.4c-0.4-4-0.4-8.1-0.2-12.2c-8.7,0.1-17.4-0.6-26-2c-1.9-0.2-3.7-0.8-5.3-1.7
	c-1.8-1.4-3.1-3.3-3.8-5.4C1584.5,559,1584.9,552.4,1584.9,546.1z"/>
<path class="st0" d="M1731.3,554.7l-0.2-26c-0.1-8.4-0.2-17.2-4.2-24.7c-4.1-7.7-11.9-12.9-20.3-15.3s-17.3-2.2-25.9-1.2
	c-7.7,0.9-15.3,2.6-22.2,5.9c-0.5,0.2-1,0.5-1.4,1c-0.3,0.6-0.4,1.2-0.3,1.8l0.5,14c3.1-2.2,6.8-3.3,10.4-4.5l11.6-3.5
	c3.4-1.2,7-2,10.6-2.4c13.5-1,25.2,9.2,26.2,22.6c0.1,0.9,0.1,1.8,0,2.7c-12.5-0.1-25,0.5-37.4,1.8c-3.4,0.2-6.7,0.8-9.9,1.9
	c-9.2,3.6-14.4,13.5-16.7,23.1c-1.3,5.3-2,11-0.4,16.2c1.9,6.2,6.8,11.1,12.3,14.7c4,2.7,8.5,4.5,13.2,5.5c7.2,1.3,14.7-0.1,21.4-3
	c6.6-3.1,12.7-7.3,18-12.4l-0.3,13.8c5.3-1.2,10.8-1.3,16.2-0.2C1731.4,575.9,1731.3,565.3,1731.3,554.7z"/>
<path class="st0" d="M1714.6,538.5c-12.7-1.6-26.3-3.1-37.7,2.8c-2.2,1.1-4.1,2.5-5.8,4.4c-2.6,3.1-3.5,7.2-3.8,11.2s0,8.4,2.5,11.7
	c2.8,3.7,7.8,5,12.4,5.9c6.4,1.2,13.4,1.8,19-1.6c3.3-2,5.7-5.2,7.6-8.6C1713.4,556.4,1715.4,547.4,1714.6,538.5z"/>
<path class="st1" d="M1948.4,456.9l-12.4-0.4c-1.4-0.2-2.8,0.1-4,0.8c-0.8,0.7-1.3,1.5-1.7,2.5l-19.8,42.3l-4.5,9.7
	c-14.4,30.8-28.6,61.8-41.5,93.2l15.5-1.1c1.4-3.1,2.8-6.2,4.2-9.3c7.3-16.2,14.7-32.3,22.2-48.5
	C1920.1,516.3,1934,486.5,1948.4,456.9z"/>
<path class="st0" d="M2169,550.4l-2-36.2c-0.1-4.5-0.7-8.9-1.7-13.3c-1.2-4.3-3.5-8.4-7.1-11c-4-2.7-8.9-3.7-13.6-2.8
	c-7.4,1.2-13.7,5.9-17.2,12.5c-3.7-9.7-14.6-14.6-24.3-10.9c-4.4,1.7-8,5-10.1,9.2c0.5-2.8,0.7-5.6,0.9-8.5l-14.6-0.4
	c-0.5-0.1-1,0.1-1.4,0.4c-0.5,0.5-0.2,1.3,0.1,2c1.8,4.4,1.2,9.3,0.8,13.9c-1.1,12.8-0.9,25.7-0.8,38.6l0.5,43.9
	c4.8-1.4,9.9-1.9,14.9-1.3c-1.2-9,0.1-18.1,0.5-27.1c0.7-15.5-1.6-31,0.2-46.4c0.2-2.9,1-5.8,2.3-8.4c1.8-4.1,6.6-6,10.7-4.3
	c1.4,0.6,2.7,1.7,3.6,3c1.7,2.3,2.9,4.9,3.6,7.7c1.2,4.3,2,8.6,2.4,13.1c0.3,3.8,0.3,7.7,0.3,11.5l-0.3,51.5c4.5-1,9.1-1.2,13.6-0.3
	c0.8-12.5,1-25,0.6-37.6c-0.3-10.4-1.1-20.8-0.3-31.2c0.3-3.8,0.8-7.6,2.5-11s4.7-6.3,8.4-7c1.2-0.2,2.4-0.2,3.6,0.2
	c1.8,0.9,3.2,2.4,4,4.2c4.7,8.4,4.8,18.5,4.8,28.1l-0.1,54.2c5-0.8,10.1-0.8,15,0.2C2166.1,574.7,2169.6,562.1,2169,550.4z"/>
<path class="st0" d="M2268.9,540.6c0.3-6.5,0.1-12.9-0.5-19.3c-0.9-10.3-3.6-21.6-12.2-27.4c-4-2.7-8.8-3.9-13.5-4.6
	c-15.2-2.5-31.4-1.4-45.4,5c-0.9,0.4-1.8,0.9-2.5,1.7c-1.1,1.3-1,3.2-0.8,5l1,11.1c0.1-1.4,1.5-2.4,2.7-3.1c9-5.2,19.1-8.1,29.4-8.6
	c7.5-0.3,15.8,1.1,20.8,6.7c4.5,5.1,5.3,12.3,5.9,19l-22.4,0.1c-6.4,0-12.8,0-19,1.5s-12.3,4.4-16.3,9.3c-2.9,3.5-4.5,7.9-5.9,12.2
	c-0.9,2.5-1.5,5-1.9,7.6c-1.3,9.9,3.7,20.1,11.8,25.9s18.8,7.5,28.5,5.4s18.5-7.8,25.2-15.2c-0.3,4.9-0.3,9.8-0.1,14.8
	c5-1.5,10.3-1.7,15.4-0.5C2269,571.4,2268.2,555.8,2268.9,540.6z"/>
<path class="st0" d="M2252,538.3c-12.9-2.3-26.2-1.1-38.5,3.5c-2.3,0.7-4.4,1.9-6.1,3.5c-1.4,1.6-2.4,3.6-2.8,5.7
	c-1.1,4.8-0.6,9.8,1.6,14.2c2.2,4.4,6.1,7.7,10.8,9.1c2.4,0.6,4.8,0.9,7.3,0.8c7.6-0.1,15.7-2.4,20.5-8.3c1.4-1.7,2.5-3.6,3.4-5.7
	C2251.7,553.7,2253,545.3,2252,538.3z"/>
<path class="st0" d="M2373.3,489.1l-35.9,0.5c0.2-9.3-0.1-18.6-1.1-27.8c0-0.4-0.2-0.9-0.5-1.2c-0.3-0.2-0.7-0.3-1.1-0.2l-12.1,0.7
	c-0.8-0.1-1.5,0.4-1.6,1.2c0,0.2,0,0.4,0.1,0.7l0.4,26.2c-8.2-0.6-16.5-0.5-24.6,0.4c-0.6,0-1.1,0.2-1.5,0.6
	c-0.3,0.4-0.4,0.9-0.3,1.4l0.1,10.6c8.9-1,17.9-1.2,26.9-0.4c-2.1,11.4,0.3,23.1,0.9,34.7c0.6,12.6-0.7,25.7,4.1,37.3
	c0.9,2.5,2.4,4.7,4.2,6.6c3.8,3.6,9.3,4.5,14.5,5c9.4,1,18.9,1.4,28.4,1.1v-13.3c-8.9,0.4-17.8-0.8-26.3-3.4
	c-2.4-0.6-4.6-1.8-6.5-3.3c-1.3-1.4-2.4-3.1-3-4.9c-2.4-6.2-2.4-13.1-2.3-19.7l0.5-39.9c12.5-1.3,25-2,37.6-2.1
	C2372.7,496.5,2372.5,492.7,2373.3,489.1z"/>
<path class="st0" d="M2483.8,543.9c0.4-10.3-0.4-20.6-2.2-30.7c-1-5.8-2.5-11.6-6-16.4c-6-8.3-17.4-11.6-27.3-9.6s-18.6,8.8-24.6,17
	c0.4-4.5,0.7-9,0.9-13.5l0.8-14.2c0.4-8.6,0.9-17.3-0.3-25.9l-16.6,0.1c-0.7,45.5-0.4,91.1,0.8,136.6l15.4-0.2
	c-0.3-21,0.4-42,2.2-63c0.2-3.7,0.8-7.4,2-11c2.6-6.8,8.6-11.7,15.8-12.8c7.2-0.9,14.3,2.5,18.1,8.8c1.2,2.3,2.1,4.7,2.6,7.3
	c5.5,23,0.2,47.2,3,70.7c5-1.2,10.3-1.3,15.3-0.1C2483.1,572.3,2483.2,557.8,2483.8,543.9z"/>
<path class="st0" d="M132.8,1107.1c38.3,50.6,85.6,99.4,141,145.7l147.8-151.1c41.4,60.8,106,117.5,189.3,166l181.7-157.5
	c37.9,57.8,97.2,112,173.9,158.9c44.7-53.9,97-106.2,156.4-156.4c32.3,57.8,79.8,113.4,140.6,164.9
	c48.1-57.1,107.1-111.9,175.9-163.3l110,165.3c52.4-55.9,111.4-110.1,176.8-162.6l97.8,167.2l178.3-183.3l110.9,168.1
	c53.7-59.6,124.6-115.3,209.8-164.8c13.6,57.4,37.6,114.1,71.5,169.3c41-62,114.6-118.4,211.1-161.9
	c12.7,60.4,45.8,119.7,97.6,174.5l219.3-176.5"/>
<path class="st0" d="M177.6,1098.6l88.5,95.4c51.3-43.3,104.9-83.8,160.5-121.3c57.3,47.7,114.7,95.3,172,143
	c47.2-54.1,113.4-103.9,194.7-146.5c46.8,51.4,101.3,101.1,162.8,148.4c39-56.8,100-109.6,178.5-154.8l113.4,159.3
	c45.1-53.6,107.7-103.4,184.6-146.8l122.3,147.1c44.3-53.9,105.6-104.2,180.8-148.5c31.6,52,68.9,103,111.8,153
	c26.9-61.1,86.7-118.4,171.2-164.1c23.6,54.6,60.6,107.7,109.8,157.8c32.5-61.4,112.5-116.1,219.2-149.8
	c-2.1,52.1,16.2,104.4,53.5,153c45-57.8,117.9-109.9,210.7-150.5c24.8,56.2,61.2,111.1,108.3,163.4
	c39.1-53.5,100.2-102.9,178.3-144.1"/>
<path class="st0" d="M166.6,1107.2l-3,20.3l22-9.2l1.7,34.5l16.1-12.2l0.3,28.7c5.1-2.9,10.6-5,16.4-6.1c-0.2,6.7,0.3,13.3,1.6,19.9
	c0.6,3.3,2.2,7.2,5.5,7.5c5.2,0.4,10.1-8.7,13.7-4.9c-0.3,6.9-0.6,13.8-0.8,20.7c7.4,2.8,15.8,0.6,21-5.3
	c0.2,9.6,5.3,18.5,13.6,23.3c6.2-13.4,14.4-25.7,24.4-36.6c-4.5,6,5.4,14.1,12.1,10.9s9.1-11.6,9.8-19s1-15.6,5.8-21.2l3.7,13.3
	l19.9-34.1l5,13c7.4-12,15.6-23.4,24.7-34.2l6.1,6.8c3.6-9.2,9-17.6,16-24.6l4.1,7l21.8-17.3c0.7,6.2,2.5,12.8,7.2,16.8
	s13.1,4.4,16.6-0.8c-2.4,6.9-5.9,13.4-10.5,19.1c10.8,0.7,21.5-0.5,31.9-3.3l-7.7,20.6l21.8-3.6c-0.2,7.4-1.4,14.7-3.6,21.8
	c6.5-3.6,13.9-5.3,21.4-4.9c-4.3,6-2.9,14.3,3.1,18.6c5.6,4,13.3,3.1,17.8-2.1c0,8.9,1.9,17.6,5.7,25.7l12.7-7.3
	c-0.7,8.6,1.4,17.2,5.9,24.6l18.3-7.4c-3.8,6.1-1.9,14.1,4.2,17.9c5.2,3.2,12,2.4,16.2-2.1c2.5,10.1,9,18.7,18.1,23.8
	c8.4-11.5,14.4-24.5,17.8-38.4l10.3,14.6c4-11,6.3-22.6,6.7-34.3c4.5,6.9,10.3,12.9,17,17.7c4.1-10.6,4.7-22.2,1.9-33.1
	c1.6,4,3.3,8.2,6.5,11.1s8.6,3.9,11.9,1.1c2-1.7,2.9-4.4,3.6-7c2.2-8.5,3.6-17.2,4-26c1.9,5.8,4.9,11.2,8.8,15.9
	c1.3-11.7,4.7-23.1,10-33.6c4.5,7.7,7.9,16,10.4,24.6l17.3-43.4l7.9,21.2l20.8-38.8l3.6,17.2c6.2-11.7,15.2-21.7,26.1-29.3
	c1.2,8.1,4.5,15.8,9.5,22.3l12.1-3.5c0.2,5.1,0.5,10.2-1.1,16.5l17.2-1.8l6.2,22l13-2.5c-1.9,9.8-0.3,19.9,4.4,28.7l16.1-6.2
	c-2.2,7.3-2.4,15.9,2.6,21.6s16.3,5.3,18.6-2l6.9,23.1l16.8-5.9c0.2,7.5,0.6,15.6,5.5,21.2s16.1,5.8,18.5-1.3l22.7,27.2
	c1.1,1.3,2.4,2.8,4,3.2c4.1,1.1,7.1-3.9,8.4-7.9c4.8-14.3,9.6-28.7,14.4-43l12.4,12.5c1.8-10.4,3.9-20.8,6.5-31.1
	c3.9,5.2,9.7,8.6,16.1,9.5l-0.1-30.3c4.3,5.7,10.8,9.3,17.8,9.9l3.2-24.8c-2.3,4.4,4.6,9.1,9,6.8s5.8-8,5.9-13s-0.5-10.3,1.7-14.8
	l11,16.5c5-9.9,8.8-20.3,11.4-31c3.4,5.6,8.9,9.6,15.2,11.2c1.8-9.2,4.7-18.1,8.5-26.7c0.5,6.5,4.2,12.3,9.8,15.7
	c5.3-9.4,12.9-17.4,22.1-23.1l1.6,33.4h19.7l-7.7,24.6l22.4-2.4l-7,25l25.5-1.8l-4.4,23.4c6.9-5.2,17.8-2.5,22.7,4.5
	s4.5,17,0.3,24.5c6.5,1,13.2-0.3,18.9-3.6c-3.5,8.1,0.3,18.6,8.2,22.5s18.6,0.8,23-6.8c2.5,8.7,9.7,15.2,18.7,16.8
	c1.9-12,2.2-24.2,0.9-36.3c3.2,5.2,7.8,9.4,13.2,12.2c6.4-8.6,8.6-19.6,5.9-30l13.7,10.1l-1.9-30.7c6.1,5.4,13,9.7,20.5,12.9
	l-0.7-22.9c1.3,8.3,13.9,10.5,19.8,4.6s5.3-16.1,1.1-23.4l19.6,9.4c2.9-9.4,3.4-19.4,1.4-29c5.8,6.6,13.3,11.6,21.7,14.5l0.6-27.1
	c2.6,6.2,8.8,13.6,14.3,9.7c1.1-0.9,2-2,2.7-3.2c6.3-9.8,12.7-19.6,19-29.5c2.9,5.4,5.8,10.7,8.7,16.9l14.3,4.1
	c-4.3,3.2-5.2,9.2-2,13.5c3,4,8.6,5.1,12.9,2.5c-0.6,6.7,0.2,13.4,2.5,19.7l13.9-0.2c-1.9,9.9-1,24,9,25.2c2.5,0.3,5.1-0.4,7.4,0.6
	c8.4,3.5-1.6,17.5,3.2,25.2c6.9-1.4,14-1,20.7,1.1c-2.2,6.8-3.2,14.7,0.2,21s12.7,9.6,18.2,4.9c0.8,12.8,5.2,25,12.8,35.3
	c13.1-10.4,22.4-24.7,26.5-40.9c2.2,6.5,9.3,9.9,15.8,7.7c4.9-1.7,8.2-6.2,8.3-11.4c0.2-7.5-6.3-14.4-4.8-21.8l18.6,6.6l0.9-25.9
	c4.5,5,10.2,8.7,16.5,10.7c3.1-9.2,5.3-18.7,6.6-28.3l16,10.7c2.1-11.2,6.4-21.9,12.6-31.4c2.3,5.2,6,9.7,10.7,13l10.7-31.7
	c0.1,5.8,6.2,10.8,11.9,9.8c5.5-11.5,13.7-21.6,23.9-29.2c-0.8,6.5-0.3,13,1.3,19.3l19.6-3.2l-6,20.9l23.5,2.3l-3.8,26.4l21.8,0.3
	l-8,24.5l23.5-3.3c-2.9,8.6-3.9,17.7-3,26.7c5.7-1.9,11.7-2.7,17.6-2.2c-2.5,11.6-3.5,23.5-3,35.4l24.2-7.9
	c-0.2,4.7-0.4,9.8,1.8,13.9s7.8,7,11.9,4.6c2.6-1.5,3.8-4.5,4.9-7.3c4.4-11.4,8.7-22.9,13.1-34.3c-2.4,4.4,5.1,8.9,9.3,6
	s4.7-8.8,4.3-13.8s-1.2-10.5,1.3-14.9l13.7,5.7l-1.2-20.7c4.8,7.3,17.2,4.7,22-2.6s4.2-16.8,3.5-25.5c7.4,0.8,14,4.9,18.2,11
	l14.9-35.3c-1.5,6.3,8.9,9.6,13.4,4.9s3.8-12.1,1.8-18.2c5.5,1,11.5,1.8,16.4-0.8s7.2-10.5,4.3-14.5l30.9-8.2l-3,28.1l19.6,0.2
	c-2.9,8.7-5.3,17.6-7.3,26.6c7.7,1.2,15.4,2.7,23,4.3c1.5,0.3,3.2,0.7,4.1,2c1.2,1.7,0.6,3.9-0.1,5.9l-6.1,17.8l24.6,0.5l-0.1,21.3
	c0,1.7,0.1,3.5,1.3,4.6s2.8,0.9,4.3,0.8l14.9-1.2l-8.2,20.5l18.1-2.2c-2.3,10.2-1.1,21,3.4,30.4c7.5-0.8,14.7-3.4,23.1-6.6
	l15.8-24.6c4.1,4.9,10.7,10.4,16.1,7c10.1-6.2-6.6-24.3,1.4-33.1c5.5,3.8,12.4,5.3,19,4.2l0.2-25.7c7.1,1.8,13.2,6.4,16.9,12.8
	c8-9.7,13.1-21.4,15-33.8c0.2,6.7,10.6,8.3,15.3,3.6s5-12.2,5-18.8c2.5,7.7,13.9,8.8,20.4,3.9s9.1-13.1,11.4-20.9l11.7,10.5
	c6.3-7.9,12.3-16,17.9-24.3c-0.5,8,12,9.4,18.4,4.7s11.1-12.5,19-14c-0.6,10.7-0.3,21.4,0.9,32c3.9-5.4,12,3.2,10.4,9.7
	s-6.9,12.7-4.9,19l14.5,3.4c-2.3,7.3-3.6,14.9-3.7,22.6l13.9-0.4c-2.2,5.9-4,12.6-1.5,18.4s11,9.1,15.3,4.5l-1.7,27.1l14-1
	c0.6,8.7,2.7,17.3,6.2,25.3c10.5-10.9,18.3-24.2,22.8-38.7l3.6,9.4c13.6-2.3,18.6-18.8,21-32.4l5.2,9.9c8.1-8.3,13.8-18.6,16.3-29.9
	l9.4,10.2c10.1-7.8,16.7-19.2,18.4-31.8c4.8,4.5,11.1,6.9,17.6,6.7l3-18.8c8.2,6.3,19.5,6.6,28,0.8l7.9-21.9l9.4,12.7
	c12.6-4.6,21.9-15.6,24.2-28.9c7,2.5,12.2,8.5,13.6,15.8c9.4,0.2,18.8-1,27.9-3.5l-4.3,27.4c-0.3,2-0.6,4.2,0.3,6
	c3.4,7.1,16.2-0.6,21.7,5l-7,29l21.1-2.7l-4.4,33l28.2-1.7l-8.1,29.5l27.2-5c-1.4,10.8,1,21.8,6.9,31c13.3-13,29.8-22.4,47.9-27
	l-4.1-15.3c5.5,5.4,14.2,5.9,20.3,1.2l-4.9-19.6c3.3,6.3,10.5,9.6,17.5,7.9c-1.2-9.4-0.6-18.9,1.8-28c5.8,6,13.5,9.7,21.8,10.7
	l2-28.1c3.4,7,12.6,11.4,19.4,7.7s7-16-0.4-18.3c-1.4-2.3,3-4.1,5-2.4s2.6,4.6,4.5,6.5c4.3,4.4,12.5,0,13.8-6s-1.8-12-4.8-17.4
	c5.6,5.7,14.7,8.3,21.8,4.7s10-14.4,4.4-20.1c6.6,3.9,14.2,7.9,21.6,5.7s10.5-14.4,3.4-17.2"/>
</svg>
