<?xml version="1.0" encoding="utf-8"?>
<!-- Generator: Adobe Illustrator 26.0.2, SVG Export Plug-In . SVG Version: 6.00 Build 0)  -->
<svg version="1.1" id="Layer_1" xmlns="http://www.w3.org/2000/svg" xmlns:xlink="http://www.w3.org/1999/xlink" x="0px" y="0px"
	 viewBox="0 0 395.4 1000.2" style="enable-background:new 0 0 395.4 1000.2;" xml:space="preserve">
<style type="text/css">
	.st0{fill:none;stroke:#FFC300;stroke-width:4;stroke-miterlimit:10;}
	.st1{fill:none;stroke:#3399FF;stroke-width:4;stroke-miterlimit:10;}
</style>
<path class="st0" d="M208,3.1c-41,56.1-75,117-101.3,181.3c48.6,26.9,92.3,61.8,129.3,103.2c-50.1,50.1-91.9,107.9-123.7,171.2
	l138,127.2c-40,49-78.9,98.8-116.8,149.4c-2.7,3.6-5.5,7.6-5.2,12.1c0.3,4,3,7.3,5.5,10.3c39.7,47.1,79.4,94.3,119.1,141.5
	l-75.9,61.2c47,17.7,95.9,30.2,145.6,37.2c7.8-59.7,19.9-118.7,36.2-176.6c-27.4,23-56.7,43.5-87.6,61.3
	c-26.8-36.9-52.3-74.7-76.6-113.4c-3.7-5.9-7.5-12.3-7.1-19.3c0.3-5.4,3.2-10.3,6.1-14.9c31.4-50.8,68.4-98,110.2-140.6
	c-40.9-50.7-84.1-99.3-129.8-145.8c27-57.5,64.2-109.6,109.7-153.9L159.5,166.1l75.6-151.9C224.8,14.2,214.5,10.2,208,3.1z"/>
<path class="st0" d="M216.3,27c-6.7,0.5-13.2,2.4-19.1,5.5l6.8,18.3c-9.1,3-17.4,8.1-24.1,14.9l8.8,19.4c-9.6-0.1-20,2.9-25.4,10.9
	s-2.9,21.1,6.2,24c-8.9,0-17.6,3.1-24.5,8.8l10,18.7c-10.2,1.5-19.7,6.1-27.2,13.2c12,12.5,22.2,26.6,30.4,41.8l25.1-6.3l0.6,26.6
	c7.4-1.4,15-1.8,22.6-1.3c-4.2,6.1-7.2,13-8.7,20.2l27.3,2.6c-5.2,2.2-8.9,6.8-9.9,12.3c12.8,4.8,24.9,11.3,36,19.3
	c-5.2-1.7-10.9,0.4-13.7,5.1c8.4,7.4,15.2,16.5,19.9,26.6l-21.1-0.3c2,5.3,3,10.9,3,16.5l-32,3.7l9.1,28.1
	c-10.8-4.1-23-1.9-31.9,5.5l12.6,21c-9.7-2.3-19.8-2-29.4,0.9l10.1,34c-12.3-2.6-25.1-1-36.3,4.5l20.1,37.4
	c-7.6,0.5-14.6,3.9-19.7,9.5c13.8,0.9,27.5,3.1,40.9,6.5c-2.7,9-3.8,18.5-3.3,27.9c9.1-4.3,18.9-7,29-7.7
	c-3.9,9.6-6.3,19.7-7.2,29.9c8.4-2.6,17.2-3.6,26-2.8c-3.2,7.4-4.4,15.6-3.4,23.7l25.8-4.1c-3.3,8.3-4.3,17.3-2.6,26.1l20-2.2
	l12.5,32.1l-33.2,4.2l8.3,26.3c-7.9-4.2-18.6-4.4-25,1.8s-4.6,19.5,4.1,21.7c-6.6,8.7-26-2.3-29.3,8c-0.7,2.2-0.2,4.5,0.4,6.7
	c1.9,7.9,3.8,15.7,5.7,23.6l-23.6-3.2c-2.6-0.3-5.6-0.5-7.3,1.4c-1.5,1.8-1.2,4.4-0.8,6.7l5.5,31c-14.9-1.6-29.8,3.4-40.6,13.8
	c22,6.4,36.9,31,32.3,53.4c7.6-4.1,16.1-6.4,24.7-6.7c-1,11.5-0.4,23.1,1.7,34.4c6.3-3.5,14.1-2.6,19.5,2.2l-3.8,22.9
	c6.1-3.6,13.7-2.9,19,1.8l-1.6,19c4.5-3,10.2-3.6,15.1-1.4l-0.9,19.6"/>
<path class="st0" d="M220.5,952.3l99-75c-7.8,30.2-15,60.6-21.5,91.1C272.7,960.5,246.8,955.1,220.5,952.3z"/>
<path class="st1" d="M279.7,78.2l-31.4,71c-1.5,3.4-3.1,7.1-2.5,10.9c0.5,3.4,2.7,6.2,4.8,8.9c34,43.1,72,82.8,113.4,118.8
	c-35,43.1-63,91.6-82.7,143.5c-1.1,3-2.3,6.3-1.8,9.5s2.6,6.1,4.6,8.8c29.1,38.1,59.6,75.2,91.2,111.2
	c-36.5,47.8-70,97.8-100.4,149.7c-3,5.1-6.1,10.6-6,16.5c0,5.6,2.8,10.7,5.5,15.6l27.8,50"/>
<path class="st1" d="M93.6,41.5C62.2,92.3,39.2,147.9,25.5,206.2c43.7,25.1,86,52.5,126.7,82.1c-52,58.7-82.2,133-111.4,205.8
	c-1,2.4-1.9,5-1.4,7.5c0.7,3.5,4.1,5.8,7.2,7.8c32.4,20.4,61.1,46.1,85.1,76C90.1,631,61.6,687,49.2,747.5c-0.6,3.1-1.2,6.3-0.4,9.4
	c1.1,4.4,4.8,7.6,8.2,10.6c34.5,29.9,64.1,65.1,87.4,104.4"/>
<path class="st1" d="M296.3,86.3L269.4,148c-1.5,3.5-3.1,7.2-2.6,11s3.1,7.1,5.7,10c32.4,38,68.4,72.7,107.5,103.6
	c2.2,1.7,4.5,3.7,4.7,6.5c0.1,2-1,3.8-2,5.5c-28.1,45.6-55.1,91.8-81,138.7c-3.2,5.8-6.5,12.4-4.6,18.8c1.1,3.8,3.8,6.8,6.4,9.6
	c31.2,34.3,60.3,70.3,87.3,108c1.5,2,3,4.3,2.5,6.8s-2.5,4.1-4.3,5.6c-17.9,14.8-27.4,37.2-38.2,57.8
	c-15.3,29.3-34.1,56.6-56.1,81.2c-3,3.3-6.1,6.8-6.8,11.2c-0.6,4,0.9,7.9,2.3,11.6l23.2,59.2"/>
<path class="st1" d="M78.7,37.3C37.4,88.4,10.9,149.9,2.2,215c43,25.7,84.2,54.5,123.2,86c-20.6,13.4-31.8,37-41.6,59.5
	c-20.8,47.3-40.3,95.1-59.8,143c-0.9,2.1-1.7,4.4-1.1,6.5c0.5,2,2.2,3.4,3.8,4.8c28.8,24.3,57.5,48.6,86.2,72.9
	c-40.1,41.1-59.6,97.5-78,151.8c-1.5,4.3-2.9,8.9-2.3,13.4c0.5,3.6,2.4,6.9,4.2,10.1c25.3,43.2,56.6,82.6,93,116.9"/>
</svg>
