<svg id="Layer_1" data-name="Layer 1" xmlns="http://www.w3.org/2000/svg" viewBox="0 0 395.43 1000.15"><defs><style>.cls-1{fill:none;stroke:#ffc300;stroke-miterlimit:10;stroke-width:4px;}</style></defs><path class="cls-1" d="M209.07,4.72A856.88,856.88,0,0,0,107.81,186,491.69,491.69,0,0,1,237.07,289.25,662.86,662.86,0,0,0,113.38,460.49l138,127.21q-59.93,73.51-116.82,149.41c-2.7,3.61-5.53,7.64-5.21,12.13.29,4,3,7.26,5.51,10.29Q194.37,830.24,253.93,901L178,962.25a685.51,685.51,0,0,0,145.61,37.21,1260.31,1260.31,0,0,1,36.17-176.6,607.33,607.33,0,0,1-87.63,61.3q-40.23-55.36-76.56-113.41c-3.71-5.91-7.51-12.35-7.07-19.31.34-5.41,3.22-10.28,6.06-14.89A801.6,801.6,0,0,1,304.8,595.94q-61.29-76-129.8-145.76a528.62,528.62,0,0,1,109.66-153.9L160.54,167.63l75.62-151.9C225.87,15.81,215.61,11.79,209.07,4.72Z" transform="translate(-1.08 -1.57)"/><path class="cls-1" d="M217.35,28.58a48.67,48.67,0,0,0-19.15,5.53L205,52.37a60.92,60.92,0,0,0-24.14,14.92l8.76,19.41c-9.59-.14-20,2.94-25.39,10.87s-2.94,21.08,6.19,24a38.52,38.52,0,0,0-24.5,8.84l10,18.69a49.73,49.73,0,0,0-27.21,13.2,189.89,189.89,0,0,1,30.4,41.85l25.09-6.3.65,26.55a90.75,90.75,0,0,1,22.56-1.32,55.78,55.78,0,0,0-8.74,20.24L226,245.88a16.53,16.53,0,0,0-9.86,12.3,153.4,153.4,0,0,1,36,19.33,11.67,11.67,0,0,0-13.74,5.15,79.26,79.26,0,0,1,19.85,26.65L237.16,309a45,45,0,0,1,3,16.51l-32,3.7,9.15,28.08a32,32,0,0,0-31.88,5.55L198,383.87a56.9,56.9,0,0,0-29.39.91l10.11,34.05a56.31,56.31,0,0,0-36.32,4.55l20.09,37.36a29.49,29.49,0,0,0-19.73,9.52,223,223,0,0,1,40.91,6.53,81.18,81.18,0,0,0-3.29,27.93A81.64,81.64,0,0,1,209.35,497a104.44,104.44,0,0,0-7.22,29.94,67.14,67.14,0,0,1,26-2.79,45.05,45.05,0,0,0-3.4,23.68l25.76-4.07a47.14,47.14,0,0,0-2.64,26.13l20-2.21,12.52,32.13L247.14,604l8.28,26.26c-7.9-4.15-18.59-4.43-25,1.83s-4.55,19.47,4.11,21.65c-6.58,8.66-26-2.33-29.27,8-.69,2.15-.16,4.47.36,6.66q2.85,11.81,5.68,23.62l-23.63-3.15c-2.56-.35-5.6-.52-7.3,1.44-1.52,1.75-1.2,4.39-.8,6.67l5.46,31a50.73,50.73,0,0,0-40.61,13.83c22,6.38,36.87,31,32.32,53.43a56.45,56.45,0,0,1,24.7-6.66A127.32,127.32,0,0,0,203.13,823a16.89,16.89,0,0,1,19.48,2.22l-3.75,22.9a16.19,16.19,0,0,1,19,1.81l-1.64,19a15.57,15.57,0,0,1,15.11-1.36l-.93,19.62" transform="translate(-1.08 -1.57)"/><path class="cls-1" d="M221.54,953.88l99-75q-11.68,45.31-21.5,91.08A396.29,396.29,0,0,0,221.54,953.88Z" transform="translate(-1.08 -1.57)"/><path class="cls-1" d="M280.82,79.74l-31.42,71c-1.53,3.45-3.09,7.14-2.52,10.87.51,3.35,2.67,6.19,4.77,8.85a875.14,875.14,0,0,0,113.42,118.8A519.79,519.79,0,0,0,282.4,432.76c-1.15,3-2.3,6.26-1.84,9.49s2.58,6.15,4.62,8.81q43.72,57.13,91.22,111.23A1490.21,1490.21,0,0,0,276,712c-3,5.13-6.07,10.6-6,16.55,0,5.58,2.83,10.72,5.54,15.59l27.79,50" transform="translate(-1.08 -1.57)"/><path class="cls-1" d="M94.69,43.05a552.66,552.66,0,0,0-68.1,164.68,1414.28,1414.28,0,0,1,126.73,82.11c-52,58.68-82.19,133-111.4,205.82-1,2.4-1.94,5-1.42,7.49.73,3.55,4.1,5.82,7.16,7.76a345.46,345.46,0,0,1,85.07,76,343.37,343.37,0,0,0-82.42,162.2c-.63,3.1-1.21,6.34-.43,9.41,1.12,4.39,4.79,7.6,8.22,10.56a426.61,426.61,0,0,1,87.43,104.39" transform="translate(-1.08 -1.57)"/><path class="cls-1" d="M297.4,87.92l-26.9,61.67c-1.53,3.51-3.09,7.24-2.56,11s3.14,7.05,5.67,10A764.93,764.93,0,0,0,381.08,274.22c2.16,1.71,4.51,3.74,4.67,6.49.11,2-1,3.79-2,5.47q-42.19,68.35-81,138.74c-3.2,5.81-6.48,12.42-4.63,18.78,1.08,3.75,3.81,6.77,6.43,9.65a1189.34,1189.34,0,0,1,87.3,108c1.45,2,3,4.33,2.55,6.77s-2.48,4.06-4.34,5.61c-17.92,14.84-27.43,37.18-38.17,57.82a398.32,398.32,0,0,1-56.07,81.2c-2.95,3.3-6.09,6.83-6.78,11.2-.64,4,.85,7.91,2.31,11.64l23.17,59.25" transform="translate(-1.08 -1.57)"/><path class="cls-1" d="M79.75,38.83A358.94,358.94,0,0,0,3.23,216.56a1070.16,1070.16,0,0,1,123.18,86c-20.59,13.43-31.75,37-41.62,59.55C64,409.4,44.54,457.24,25,505.07c-.85,2.09-1.72,4.37-1.11,6.55.55,2,2.19,3.42,3.76,4.75q43.13,36.42,86.23,72.86c-40.06,41.12-59.6,97.46-78,151.84-1.47,4.35-2.95,8.89-2.3,13.42.53,3.63,2.38,6.91,4.23,10.07a528.08,528.08,0,0,0,93,116.92" transform="translate(-1.08 -1.57)"/></svg>