<svg id="Layer_1" data-name="Layer 1" xmlns="http://www.w3.org/2000/svg" viewBox="0 0 269.99 1033.24"><defs><style>.cls-1{fill:none;stroke:#ffc300;stroke-miterlimit:10;stroke-width:6px;}</style></defs><path class="cls-1" d="M204.84,198.82c13-39.21,8.87-84.81-16.78-116.91-7.22-9-15.87-16.79-24.57-24.39C146.88,43,129.76,28.83,110.32,18.4S68.83,1.46,46.86,3.31A62.11,62.11,0,0,0,48.49,40.8C62,40.38,75.56,43.28,76.7,45.34c31.38,13,61.49,32.53,78.84,61.73C165.93,124.55,170.68,146,168.16,166"/><path class="cls-1" d="M236.48,458.7c12.79-23.61,17.7-51.81,19.3-79,3.65-62.17-8.25-127.54-46.2-176.91S104,124.27,44.68,143.23c-8,2.58-16.06,6.11-21.94,12.18C13.59,164.85,11,179,12,192.16c2.47,31.9,25.06,61.35,58.36,75.5s80.29,6.25,107.79-22.57c1-1,1.89-2,2.8-3.06"/><path class="cls-1" d="M218,712.11c12.51-13.46,20.93-30.46,27.77-47.62,15.06-37.82,23.69-78.73,20.56-119.33S247.7,464.31,219.42,435c-23.78-24.64-55.34-40.54-87.89-51.2-25.46-8.33-54.54-13.4-78.08-.63-25.66,13.92-37.21,47.5-29.31,75.61s32.51,49.75,60.41,58.32,58.5,5.25,85.91-4.79a151.69,151.69,0,0,0,27.19-13"/><path class="cls-1" d="M165.61,696.5c-14.73,10.48-31.9,17.1-50,17.79-38.67,1.47-77.9-29.26-79.47-67.93-.29-7.26.76-14.85,4.83-20.87,10.35-15.29,33.71-13.06,50.58-5.56,53.62,23.84,87.08,84.44,82.84,143S130.67,875,77.78,900.4a296.17,296.17,0,0,0-54.59-66.7L4.49,965.79c-1,7-1.53,15.41,3.89,20,3.51,3,8.47,3.35,13.06,3.65a543.5,543.5,0,0,1,165,37L113.56,931c45.8-39,94.15-82.14,107.9-140.73,7.87-33.56,3.23-69.2-8.5-101.61-11.51-31.77-30.11-61.43-56.19-82.91s-60-34.24-93.69-31.75c-18.49,1.36-37.64,7.94-49.1,22.52C-4.43,619.9,3.15,654.29,16,681.17c12.53,26.15,31.07,51.72,58.42,61.36,14,5,29.25,5.28,44.12,4.77,19.23-.66,39.11-2.95,57.27-9"/><path class="cls-1" d="M174.77,460.2A103,103,0,0,1,139.54,483c-11.73,4.46-25.19,6.59-36.68,1.5C90.39,479,82.88,466.22,77,453.89c-2.48-5.25-4.86-10.78-4.82-16.58.08-13,12.79-23.21,25.69-24.43s25.47,4.49,36.34,11.54c38.14,24.74,62.73,66.69,74.38,110.63,9.91,37.41,11.06,78.37-4.47,113.82a113.51,113.51,0,0,1-5.58,11.07"/><path class="cls-1" d="M152.79,202.6c-22.24,26.71-66.63,31-93.58,9.05-3.2-2.61-6.4-6.07-6.18-10.2.15-2.85,1.93-5.33,3.84-7.46,17.49-19.48,49.38-20.15,72.39-7.67s38.7,35.06,51.29,58c22,40.19,37.53,85.69,33.29,131.34a143,143,0,0,1-12,45.31"/><path class="cls-1" d="M67.55,18.41,83.47,39l20.64-13.76a36.89,36.89,0,0,0,9.78,29.84,36.65,36.65,0,0,1,23.27-8.86c-1.6,6.37-3.2,13.11-1.38,19.43s8.39,11.77,14.69,9.91c3-.9,5.4-3.24,8.27-4.54s7-1,8.24,1.9c1.07,2.61-.9,5.37-2.43,7.74a28.76,28.76,0,0,0-3.43,23,65.46,65.46,0,0,1,31.14,14.56A43.19,43.19,0,0,0,177.31,143c6.54.62,13.65,1.49,18.27,6.16s4.06,14.44-2.29,16.11"/><path class="cls-1" d="M148.52,226.74a87.14,87.14,0,0,0,2.85,25.11,48.85,48.85,0,0,1-33.28-15.29A37.09,37.09,0,0,1,101.91,258c3.57-10-1.37-22.32-10.88-27.09a91.68,91.68,0,0,1-34.27,21.56,184.37,184.37,0,0,1,9.65-29.15,63.56,63.56,0,0,1-32.18-4.22q-1-24.6-1.37-49.22a39.89,39.89,0,0,0,15.2,14.51,5,5,0,0,0,2.91.83c1.71-.2,2.77-1.9,3.62-3.39a86.66,86.66,0,0,1,27-29c-1.78,8,7.91,14.69,16,13.33s14.27-7.7,19.86-13.69c4,2.83,4.79,8.33,5.84,13.12s3.66,10.27,8.55,10.79c4.07.44,7.45-2.82,10.76-5.23s8.51-3.9,11.07-.7a9.27,9.27,0,0,1,1.51,4.57L157,187.57c1.22,8.42,4.45,18.88,12.92,19.73,9.15.93,17.32-11,25.73-7.23.51,6.4-3.39,12.18-5.84,18.12a42,42,0,0,0-.81,29.59l36-10.34c-.21,9.13-5.56,17.2-9.87,25.25s-7.74,17.79-4,26.12a68.94,68.94,0,0,1,31.15-4.34c.34,10.11-7.05,18.54-12.82,26.85a100.14,100.14,0,0,0-13.83,28.88L239,341.83c4.6.32,10.35,1.6,11.24,6.12.41,2.09-.47,4.22-1.58,6-3.75,6.17-10.08,10.22-15.58,14.9s-10.64,10.94-10.45,18.16a52.53,52.53,0,0,1,16,11.9c1.12,1.24,2.26,2.72,2.09,4.38s-1.58,2.92-2.89,4l-12.52,10.06"/><path class="cls-1" d="M168.85,481.23,166,499.89c-.18,1.17-.44,2.47-1.42,3.12a4.18,4.18,0,0,1-3.23.16,77.48,77.48,0,0,1-21.77-8.61c4.29,6.24-.51,15.89-7.88,17.62s-15.2-3.23-18.41-10.08c-2.08-4.45-4.44-10.83-9.26-9.88-2.23.44-3.73,2.46-5.28,4.12a23.39,23.39,0,0,1-18,7.34,60.22,60.22,0,0,1,8.1-26.7,88.34,88.34,0,0,1-45.53-6.9c8.91-4.23,19.15-10.43,19.27-20.3.07-5.91-4.17-11.5-9.76-13.44-2.66-.92-5.57-1.11-8.06-2.42a10.24,10.24,0,0,1-5.07-11.05c1.78,1.76,4.89,1.34,6.86-.2s3.09-3.89,4.25-6.1a88.15,88.15,0,0,1,24.28-28.9A37.52,37.52,0,0,0,103.9,407.2L117.29,388a158,158,0,0,0,22.85,28.06c7,6.77,17.63,13.16,25.69,7.74,4.45-3,8.6-9.44,13.4-7a61,61,0,0,0,.2,37.61c1.11,3.33,2.64,6.74,5.49,8.8,5.59,4,13.39,1.3,19.53-1.85s13.33-6.65,19.59-3.75l-20.3,40.54c12.11,11.26,35.28-6,47.33,5.34a5.25,5.25,0,0,1,1.87,3.22c.2,2.11-1.6,3.83-3.23,5.19L217,539.08a87.77,87.77,0,0,1,40.18,7.69c1.92,5.25-4.24,9.55-9.05,12.4A60.14,60.14,0,0,0,224,586.27c5.15.19,10.54.45,15,3s7.65,8.21,5.67,13a16.15,16.15,0,0,1-3.95,5.07L225,622.73a5.72,5.72,0,0,0-1.9,2.8c-.77,4,5.6,4.37,9.43,5.84,5.82,2.24,6.82,10.71,3.47,16s-9.4,8-15.11,10.52"/><path class="cls-1" d="M148.85,717.68c-3.11,3.44-3.73,8.38-5.29,12.75s-5.15,8.9-9.76,8.41c-2.11-.22-4-1.47-5.69-2.68L108.8,722.73c-1.19,4-2.44,8.07-5,11.31s-6.94,5.44-11,4.33c-4.16-1.15-6.76-5.56-7.15-9.87s1-8.56,2.27-12.68l-17.24.52a185.47,185.47,0,0,1-22.12-.22L57,696.29c.61,1-1.05,2.08-2.14,1.61s-1.69-1.62-2.58-2.39c-2.49-2.16-6.26-1-9.53-.65s-7.66-1.91-6.55-5c-2.2.77-4.57,1.55-6.82.94s-4.1-3.23-3-5.29a6.7,6.7,0,0,1,2.37-2.17c2.71-1.86,5.14-4.44,5.84-7.66s-.88-7-4-8c-1.76-.57-3.68-.21-5.5-.5a7.92,7.92,0,0,1-6.32-5.85,84.71,84.71,0,0,0-.82-32.36l13.29,17.31a85.6,85.6,0,0,1,17.91-57.41,28.73,28.73,0,0,0,15.65,22.51,83,83,0,0,1,24.52-23.15c1.42-.87,3.2-1.72,4.67-.94s1.74,2.45,2,4l5.84,37.17a68.09,68.09,0,0,1,42.12-17.47A127,127,0,0,0,141.74,650a82.75,82.75,0,0,1,37.6-3,57.89,57.89,0,0,0-9.05,34.19,56.73,56.73,0,0,1,34.38-2.9,148,148,0,0,0-21.87,51.85,46.19,46.19,0,0,1,24.89,2c2.53.93,5.34,2.57,5.56,5.27a7,7,0,0,1-1.25,4c-4.2,7.16-10.95,12.39-16.76,18.32s-11,13.42-10.71,21.72a58.51,58.51,0,0,1,19.4,9.15c1.48,1.06,3,2.54,2.83,4.34a5.38,5.38,0,0,1-2.08,3.07L168.53,831a31.16,31.16,0,0,1,13,20.15,7.61,7.61,0,0,1-.24,4.49c-1.76,3.8-7.23,3.07-11.39,2.58A30.29,30.29,0,0,0,153.31,861a6.68,6.68,0,0,0-2.87,2.17c-2.19,3.36,1.74,7.23,3.33,10.91,3.36,7.8-5,16.19-13.34,17.63s-16.94-1.12-25.4-.46c2,6.07,3.89,12.85,1.29,18.7s-11.84,8.63-15.39,3.3c-.37-.54-.62-1.34-.15-1.79s1.37.54.75.75"/><path class="cls-1" d="M39.19,896.32l-9.95,63.4c-.57,3.6-.84,8,2.08,10.18A10.23,10.23,0,0,0,36,971.44a771.48,771.48,0,0,1,97.34,21.81c-31-39-54.86-84.62-93.64-115.9C39.5,883.75,40.15,890.22,39.19,896.32Z"/></svg>