<svg id="Layer_1" data-name="Layer 1" xmlns="http://www.w3.org/2000/svg" viewBox="0 0 914.83 239.37"><defs><style>.cls-1{fill:none;stroke:#ffc300;stroke-miterlimit:10;stroke-width:6px;}</style></defs><path class="cls-1" d="M97.25,140A524.57,524.57,0,0,1,82.8,40.42L803.12,57.78c2.67,34.27,5.34,68.55,7.23,104l-59.13,3.34c18.91,9.32,34.45,24.13,49.68,38.71L833.41,235c23.2-27.35,56.19-45.95,75.7-76.05l-56.81,3"/><path class="cls-1" d="M852.67,161.52,856.56,14.8,47.27,3A926.62,926.62,0,0,0,58.81,142.45l-50.4,1.44a869.52,869.52,0,0,1,77.78,68.53c27.08-21.13,41.74-54.53,66.57-78.27a202.71,202.71,0,0,1-55.44,5.13"/><path class="cls-1" d="M90.63,137.29a158.65,158.65,0,0,0-28-22.3A117,117,0,0,0,80.09,89.52l-25-17.8,18.22-21A10.2,10.2,0,0,0,76,46.24c.49-2.5-.92-4.92-2.19-7.13A96.37,96.37,0,0,1,63,10.63L97.18,30a34.31,34.31,0,0,1,17-15.54,23.14,23.14,0,0,0,43.25-.14c6.89,3.47,7.07,13.94,13.35,18.41,6,4.29,14.51,1,20.28-3.55S202,18.52,209.16,16.73l26.6,22.58,31.1-24.87,20.89,17.91c3.44,2.95,7.6,6.1,12,5.15,5.4-1.16,7.66-7.51,11.71-11.26,5.69-5.27,14.92-4.91,21.76-1.27s11.85,9.91,16.66,16a191.13,191.13,0,0,1,32.16-25.42l8.22,14.94c1.44,2.62,3,5.35,5.49,7,6.38,4.13,14.74-1,19.78-6.64s10.09-12.77,17.66-13.44l7.16,16.56c.76,1.75,1.76,3.72,3.62,4.14,1.59.37,3.16-.56,4.53-1.45l27.67-18c1.86,9,6.88,20.28,15.92,18.93a18.26,18.26,0,0,0,6.59-2.91L523.84,19.3a66.78,66.78,0,0,0,17.71,25.21,106,106,0,0,1,32.77-24.7A37.25,37.25,0,0,0,590.63,43.5a57.39,57.39,0,0,1,29.11-22.1A24.39,24.39,0,0,0,632.3,42.62a56.72,56.72,0,0,1,32.26-19.74c2.17,10.36,8.93,23.68,19.05,20.56a18.9,18.9,0,0,0,6-3.68c6.2-4.93,12.4-9.85,18.26-15.27a116,116,0,0,1,26,17.34A84,84,0,0,1,755,24.6a108,108,0,0,1,17.36,20.21L790.64,32c1.68-1.19,3.47-2.41,5.51-2.62,6.23-.64,9,7.31,12.69,12.4,8.4,11.7,26,9.85,40.11,6.75L829.68,81.12c-1.93,3.26-3.94,6.93-3.17,10.65.66,3.19,3.21,5.6,5.56,7.87,7.71,7.48,14.66,20,7.65,28.1-5,5.84-16,7.46-16.23,15.16a22.54,22.54,0,0,1,22.75,11.9A69.37,69.37,0,0,1,831,163.9"/><path class="cls-1" d="M58.34,161a89.28,89.28,0,0,1,28.11,29.65L112.62,151Z"/><path class="cls-1" d="M805.74,180.78a88.92,88.92,0,0,1,22.89,25.07,7.24,7.24,0,0,0,2.65,3c2.33,1.16,5-.55,7-2.23a126.76,126.76,0,0,0,26.16-30.43C845,179.92,825.09,180.33,805.74,180.78Z"/></svg>